<svg width="80" height="80" viewBox="0 0 80 80" fill="none" xmlns="http://www.w3.org/2000/svg">
<circle cx="40" cy="40" r="38.5" stroke="white" stroke-width="3"/>
<path d="M16.2499 54V31.2909L11.4363 33.3483V29.5829L17.8026 26.8267H20.4811V54H16.2499ZM35.4185 54.427C33.4517 54.427 31.7049 54.0906 30.178 53.4177C28.677 52.7449 27.4865 51.8132 26.6066 50.6228C25.7526 49.4064 25.3256 48.0348 25.3256 46.5079C25.3256 45.4728 25.5715 44.5152 26.0632 43.6353C26.5549 42.7296 27.2407 41.9532 28.1206 41.3062C29.0005 40.6333 30.0098 40.1546 31.1484 39.8699C29.6992 39.3782 28.5217 38.5889 27.6159 37.5019C26.7101 36.415 26.2573 35.1987 26.2573 33.853C26.2573 32.4296 26.6584 31.1615 27.4606 30.0487C28.2629 28.91 29.3498 28.0172 30.7214 27.3702C32.1189 26.7232 33.6846 26.3997 35.4185 26.3997C37.1783 26.3997 38.744 26.7232 40.1156 27.3702C41.5131 28.0172 42.6 28.91 43.3764 30.0487C44.1787 31.1615 44.5798 32.4296 44.5798 33.853C44.5798 35.1987 44.1269 36.415 43.2211 37.5019C42.3154 38.5889 41.1379 39.3782 39.6886 39.8699C41.3967 40.3098 42.7941 41.138 43.8811 42.3543C44.968 43.5706 45.5115 44.9552 45.5115 46.5079C45.5115 48.0348 45.0845 49.4064 44.2304 50.6228C43.3764 51.8132 42.186 52.7449 40.6591 53.4177C39.1322 54.0906 37.3854 54.427 35.4185 54.427ZM35.4185 38.3171C36.3761 38.3171 37.2301 38.136 37.9806 37.7737C38.7311 37.3855 39.3263 36.8808 39.7663 36.2597C40.2062 35.6128 40.4262 34.8881 40.4262 34.0859C40.4262 33.2836 40.2062 32.5719 39.7663 31.9508C39.3263 31.3038 38.7311 30.7992 37.9806 30.4369C37.2301 30.0746 36.3761 29.8934 35.4185 29.8934C34.461 29.8934 33.607 30.0746 32.8565 30.4369C32.106 30.7992 31.5108 31.3038 31.0708 31.9508C30.6309 32.5719 30.4109 33.2836 30.4109 34.0859C30.4109 34.8881 30.6309 35.6128 31.0708 36.2597C31.5108 36.8808 32.106 37.3855 32.8565 37.7737C33.607 38.136 34.461 38.3171 35.4185 38.3171ZM35.4185 50.9333C36.5572 50.9333 37.5536 50.7392 38.4076 50.351C39.2875 49.9369 39.9733 49.3676 40.465 48.643C40.9826 47.9184 41.2414 47.129 41.2414 46.275C41.2414 45.3693 40.9826 44.567 40.465 43.8683C39.9733 43.1436 39.2875 42.5872 38.4076 42.199C37.5536 41.785 36.5572 41.5779 35.4185 41.5779C34.3057 41.5779 33.3094 41.785 32.4295 42.199C31.5496 42.5872 30.8508 43.1307 30.3333 43.8294C29.8415 44.5282 29.5957 45.3304 29.5957 46.2362C29.5957 47.142 29.8415 47.9572 30.3333 48.6818C30.8508 49.3805 31.5496 49.9369 32.4295 50.351C33.3094 50.7392 34.3057 50.9333 35.4185 50.9333ZM57.4289 48.7594V41.8497H51.0238V38.4724H57.4289V31.5626H60.9226V38.4724H67.3277V41.8497H60.9226V48.7594H57.4289Z" fill="white"/>
</svg>
