<svg width="295" height="37" viewBox="0 0 295 37" fill="none" xmlns="http://www.w3.org/2000/svg">
<path d="M170.439 10.6817C170.401 14.6022 167.246 17.76 163.37 17.76C163.333 17.76 163.294 17.7592 163.257 17.7592C163.224 17.7588 163.188 17.7595 163.154 17.7595C159.276 17.7595 156.12 14.6033 156.076 10.6817C156.113 6.75686 159.273 3.59428 163.154 3.59428C163.188 3.59428 163.225 3.59494 163.257 3.59494C163.29 3.59494 163.326 3.59428 163.36 3.59428C167.241 3.59428 170.401 6.75686 170.44 10.6822L170.439 10.6817Z" fill="#1B9DD9"/>
<path d="M170.439 29.9168C170.401 33.8397 167.242 37 163.36 37C163.327 37 163.29 36.9992 163.258 36.9992C163.225 36.9992 163.188 37 163.154 37C159.274 37 156.114 33.8397 156.076 29.9172C156.114 25.9946 159.274 22.8343 163.154 22.8343C163.188 22.8343 163.225 22.8351 163.257 22.8351C163.29 22.8351 163.327 22.8343 163.36 22.8343C167.242 22.8343 170.401 25.9946 170.44 29.9172L170.439 29.9168Z" fill="#E6352B"/>
<path d="M195.804 4.65067H181.876V35.9465H190.888V27.0019H195.34C203.425 27.0019 209.31 23.1096 209.31 15.7383C209.31 8.7192 204.025 4.65067 195.804 4.65067ZM195.151 20.1796H190.94V11.8975H195.151C198.404 11.8975 200.351 13.3261 200.351 16.0384C200.351 18.7508 198.351 20.2106 195.193 20.2106L195.151 20.1796ZM69.4895 28.1405H52.0247V23.1713H67.6156V16.3284H52.0247V11.5768H69.2367V4.19533H43.1191V35.491L69.4895 35.4907V28.1405ZM18.7805 17.9951H17.37L12.4853 4.32992H0V35.5943H9.20078V18.8235H10.1904L15.759 34.2074H20.3385L25.9071 18.8235H26.8966V35.574L36.0975 35.5737V4.32992H23.6652L18.7805 17.9951ZM222.079 4.63004L208.247 35.9775H217.721L220.047 30.4182H232.574L234.943 35.9775H244.597L230.764 4.65067L222.079 4.63004ZM222.679 23.689L225.911 15.9038H226.774L229.933 23.689H222.679ZM94.3125 23.5752H97.8599L101.439 23.6581C101.127 24.3687 100.688 25.0225 100.145 25.5835C99.2775 26.5055 98.2344 27.259 97.0811 27.7998L97.0807 27.799C95.7878 28.3804 94.3786 28.683 92.9562 28.683C92.8655 28.683 92.7712 28.6816 92.6813 28.6793C92.5686 28.683 92.451 28.6861 92.3373 28.6861C87.6521 28.6861 83.8527 24.9492 83.8527 20.3421C83.8527 20.2328 83.8545 20.1222 83.8589 20.0141C83.8589 15.1381 87.4803 11.3389 92.1651 11.3389C92.1889 11.3384 92.217 11.3384 92.2408 11.3384C95.1151 11.3384 97.8886 12.391 100.018 14.2886L105.281 8.16006C101.801 5.21734 97.3538 3.59428 92.7619 3.59428C92.5439 3.59428 92.3188 3.59903 92.103 3.60558C82.0286 3.60558 74.6069 10.7593 74.6069 19.88C74.6069 29.4459 82.1651 36.1543 92.2924 36.1543C92.3452 36.1543 92.4025 36.1543 92.4567 36.1543C97.5274 36.1543 102.449 34.4467 106.397 31.3197V17.2404L94.3125 17.2392V23.5752ZM124.282 4.21597L110.45 35.5321H119.924L122.251 29.9831L134.778 29.9834L137.147 35.5326L146.768 35.5321L132.936 4.23643L124.282 4.21597ZM124.883 23.2645L128.041 15.5931L129.009 15.5936L132.167 23.265L124.883 23.2645ZM285.947 4.63004V35.9257H295V4.63004H285.947ZM278.03 15.3967C278.039 15.2293 278.044 15.0579 278.044 14.8889C278.044 12.3044 277.004 9.82027 275.156 7.98488C272.977 5.91417 269.545 4.63037 264.629 4.63037L249.26 4.63004V35.9257H258.271V26.4428H262.219L268.756 35.9257H279.157L271.346 25.0351C275.355 23.6327 278.034 19.8967 278.034 15.7113C278.034 15.6147 278.032 15.513 278.029 15.4174L278.03 15.3967ZM264.156 19.6514H258.219V12.1354H264.113C267.124 12.1354 268.988 13.3879 268.988 15.8521C268.988 18.3164 267.219 19.6722 264.156 19.6722V19.6514Z" fill="white"/>
</svg>
