<svg width="30" height="30" viewBox="0 0 30 30" fill="none" xmlns="http://www.w3.org/2000/svg">
<g clip-path="url(#clip0_1214_854)">
<path fill-rule="evenodd" clip-rule="evenodd" d="M15 30C23.3125 30 30 23.3125 30 15C30 6.68745 23.3125 0 15 0C6.68745 0 0 6.68745 0 15C0 23.3125 6.68745 30 15 30ZM19.125 17.375C19.125 15.1875 17.8125 14.4375 15.1875 14.1251C13.3125 13.875 12.9375 13.3751 12.9375 12.5C12.9375 11.6249 13.5625 11.0625 14.8125 11.0625C15.9375 11.0625 16.5625 11.4375 16.875 12.375C16.9375 12.5625 17.125 12.6875 17.3125 12.6875H18.3124C18.5625 12.6875 18.75 12.5 18.75 12.2501V12.1875C18.4999 10.8125 17.3749 9.75 15.9375 9.62505V8.12505C15.9375 7.875 15.75 7.6875 15.4375 7.62495H14.5C14.25 7.62495 14.0625 7.81245 13.9999 8.12505V9.5625C12.1249 9.81255 10.9375 11.0625 10.9375 12.6251C10.9375 14.6876 12.1875 15.5 14.8125 15.8126C16.5625 16.125 17.125 16.5 17.125 17.5001C17.125 18.5001 16.2499 19.1876 15.0625 19.1876C13.4374 19.1876 12.8749 18.5 12.6874 17.5625C12.625 17.3125 12.4375 17.1875 12.25 17.1875H11.1874C10.9375 17.1875 10.75 17.375 10.75 17.625V17.6876C10.9999 19.25 12 20.375 14.0625 20.6876V22.1876C14.0625 22.4375 14.25 22.625 14.5624 22.6875H15.4999C15.75 22.6875 15.9375 22.5 16 22.1876V20.6876C17.875 20.375 19.125 19.0625 19.125 17.375ZM6.25005 11.9374C4.43745 16.75 6.9375 22.1875 11.8125 23.9374C12 24.0625 12.1875 24.3124 12.1875 24.4999V25.375C12.1875 25.5 12.1875 25.5625 12.125 25.6249C12.0626 25.875 11.8125 25.9999 11.5625 25.875C8.0625 24.75 5.37495 22.0624 4.24995 18.5625C2.37495 12.625 5.625 6.31245 11.5625 4.43745C11.625 4.37505 11.75 4.37505 11.8125 4.37505C12.0626 4.43745 12.1875 4.62495 12.1875 4.875V5.74995C12.1875 6.06255 12.0626 6.25005 11.8125 6.375C9.25005 7.3125 7.18755 9.31245 6.25005 11.9374ZM17.8751 4.6875C17.9375 4.43745 18.1875 4.3125 18.4376 4.43745C21.875 5.56245 24.6251 8.25 25.7501 11.8125C27.6251 17.7499 24.375 24.0625 18.4376 25.9375C18.375 25.9999 18.2501 25.9999 18.1875 25.9999C17.9375 25.9375 17.8125 25.75 17.8125 25.5V24.625C17.8125 24.3124 17.9375 24.1249 18.1875 24C20.75 23.0625 22.8125 21.0625 23.75 18.4375C25.5626 13.6249 23.0625 8.18745 18.1875 6.43755C18 6.31245 17.8125 6.06255 17.8125 5.8125V4.93755C17.8125 4.81245 17.8125 4.75005 17.8751 4.6875Z" fill="white"/>
</g>
<defs>
<clipPath id="clip0_1214_854">
<rect width="30" height="30" fill="white"/>
</clipPath>
</defs>
</svg>
