<svg width="30" height="30" viewBox="0 0 30 30" fill="none" xmlns="http://www.w3.org/2000/svg">
<g clip-path="url(#clip0_1214_834)">
<path d="M28.8516 9.03753C27.4453 7.73909 25.5 5.75628 23.9156 4.35003L23.8219 4.28441C23.6659 4.15915 23.49 4.06091 23.3016 3.99378C19.4813 3.28128 1.70156 -0.0421556 1.35469 3.18823e-05C1.25749 0.0136444 1.16459 0.0488844 1.08281 0.103157L0.99375 0.173469C0.884083 0.284845 0.80079 0.419396 0.75 0.567219L0.726562 0.628157V0.960969V1.01253C2.72813 6.58597 10.6313 24.8438 12.1875 29.1282C12.2812 29.4188 12.4594 29.9719 12.7922 30H12.8672C13.0453 30 13.8047 28.9969 13.8047 28.9969C13.8047 28.9969 27.3797 12.5344 28.7531 10.7813C28.9309 10.5653 29.0879 10.333 29.2219 10.0875C29.2561 9.89544 29.24 9.69775 29.1751 9.51374C29.1102 9.32973 28.9987 9.16567 28.8516 9.03753ZM17.2875 10.9547L23.0813 6.15003L26.4797 9.28128L17.2875 10.9547ZM15.0375 10.6407L5.0625 2.46566L21.2016 5.44222L15.0375 10.6407ZM15.9375 12.7828L26.1469 11.1375L14.475 25.2L15.9375 12.7828ZM3.70781 3.28128L14.2031 12.1875L12.6844 25.2094L3.70781 3.28128Z" fill="white"/>
</g>
<defs>
<clipPath id="clip0_1214_834">
<rect width="30" height="30" fill="white"/>
</clipPath>
</defs>
</svg>
