<svg width="30" height="30" viewBox="0 0 30 30" fill="none" xmlns="http://www.w3.org/2000/svg">
<path fill-rule="evenodd" clip-rule="evenodd" d="M0 15C0 23.25 6.75 30 15 30C23.25 30 30 23.25 30 15C30 6.75 23.25 0 15 0C6.75 0 0 6.75 0 15ZM24 22.56C24 23.352 23.352 24 22.56 24H7.44C6.648 24 6 23.352 6 22.56V7.44C6 6.648 6.648 6 7.44 6H22.56C23.352 6 24 6.648 24 7.44V22.56ZM9.5124 22.188C9.465 22.188 9.4266 22.1448 9.4266 22.0974V19.6788C9.4266 19.6314 9.3882 19.5882 9.3408 19.5882H8.487C8.439 19.5882 8.3964 19.5498 8.3964 19.5024V19.035C8.3964 18.9876 8.4396 18.9444 8.487 18.9444H11.115C11.1624 18.9444 11.2056 18.987 11.2056 19.035V19.5024C11.2056 19.5498 11.1624 19.5882 11.115 19.5882H10.266C10.2186 19.5882 10.1754 19.6308 10.1754 19.6788V22.0974C10.1754 22.1448 10.137 22.188 10.0896 22.188H9.5124ZM13.9146 18.9444C13.8672 18.9444 13.8288 18.9876 13.8288 19.035V20.709C13.8288 21.1908 13.581 21.534 13.1514 21.534C12.7218 21.534 12.474 21.1908 12.474 20.709V19.035C12.474 18.987 12.4308 18.9444 12.3834 18.9444H11.811C11.7636 18.9444 11.7252 18.9876 11.7252 19.035V20.6856C11.7252 21.6636 12.2736 22.2312 13.1466 22.2312C14.0244 22.2312 14.5776 21.6636 14.5776 20.6856V19.035C14.5776 18.987 14.5344 18.9444 14.487 18.9444H13.9146ZM17.2062 20.0034C17.13 20.0034 17.106 19.9746 17.0772 19.9176C16.977 19.6836 16.7574 19.536 16.4238 19.536C16.1232 19.536 15.8706 19.641 15.8706 19.8414C15.8706 20.061 16.1046 20.1516 16.6194 20.2134C17.4018 20.304 17.85 20.5428 17.85 21.1626C17.85 21.8592 17.2392 22.2264 16.4574 22.2264C15.78 22.2264 15.198 21.897 15.1074 21.2058C15.0978 21.1392 15.1314 21.1152 15.198 21.1152H15.723C15.7896 21.1152 15.828 21.144 15.8472 21.1962C15.9186 21.4254 16.1622 21.6018 16.515 21.6018C16.8252 21.6018 17.097 21.4872 17.097 21.2442C17.097 20.9532 16.8108 20.901 16.2384 20.829C15.5802 20.7432 15.1224 20.5524 15.1224 19.9464C15.1224 19.3404 15.6426 18.9066 16.458 18.9066C17.1924 18.9066 17.703 19.3026 17.808 19.8942C17.8224 19.9608 17.8032 20.004 17.7318 20.004H17.2062V20.0034ZM18.4128 22.0974C18.4128 22.1448 18.4512 22.188 18.4986 22.188H19.7958C20.769 22.188 21.5082 21.5298 21.5082 20.5758C21.5082 19.6074 20.7594 18.9444 19.7958 18.9444H18.4986C18.4512 18.9444 18.4128 18.9876 18.4128 19.035V22.0974ZM20.721 20.5656C20.721 21.1332 20.316 21.5436 19.7958 21.5436V21.543H19.2522C19.2048 21.543 19.1664 21.5046 19.1664 21.4572V19.6782C19.1664 19.6302 19.2048 19.5876 19.2522 19.5876H19.791C20.3154 19.5876 20.721 19.998 20.721 20.5656ZM23.52 17.16H6.48C6.348 17.16 6.24 17.052 6.24 16.92V7.44C6.24 6.78 6.78 6.24 7.44 6.24H22.56C23.22 6.24 23.76 6.78 23.76 7.44V16.92C23.76 17.052 23.652 17.16 23.52 17.16ZM15.8838 15.2136H14.3238C14.2248 15.2136 14.1438 15.1326 14.1438 15.0336V10.1736H11.46C11.361 10.1736 11.28 10.0926 11.28 9.9936V8.4336C11.28 8.3346 11.361 8.2536 11.46 8.2536H14.3238H15.8838H18.54C18.639 8.2536 18.72 8.3346 18.72 8.4336V9.9936C18.72 10.0926 18.639 10.1736 18.54 10.1736H16.0638V15.0336C16.0638 15.1326 15.9828 15.2136 15.8838 15.2136Z" fill="white"/>
</svg>
