<svg width="147" height="30" viewBox="0 0 147 30" fill="none" xmlns="http://www.w3.org/2000/svg">
<g clip-path="url(#clip0_1214_816)">
<path fill-rule="evenodd" clip-rule="evenodd" d="M71.9565 3.24781C72.9855 3.75876 74.3085 2.80986 74.088 6.09453L73.794 10.7661C73.794 11.788 73.647 12.1529 73.647 13.0288C73.647 13.6858 73.5735 14.7807 73.4265 15.4376C73.206 17.4084 73.4265 17.9923 71.2215 18.2113V18.7953C71.736 19.0872 75.6315 18.9412 76.5135 18.9412C77.028 18.9412 76.587 18.9412 76.9545 18.7953C76.881 17.9923 76.587 18.2113 75.7785 18.0653C75.0435 17.9193 74.8965 17.8464 74.823 17.1894C74.529 15.7296 75.0435 8.21132 75.0435 6.24051C75.4845 6.67847 75.6315 7.18942 75.852 7.77336C76.146 8.3573 76.293 8.72226 76.587 9.30621C76.881 9.89015 77.028 10.3281 77.2485 10.912C77.616 11.496 77.763 11.861 78.057 12.5179C78.8655 14.4157 80.556 17.1894 80.997 19.0872C81.879 19.0142 81.5115 19.0872 82.0995 17.7734C83.055 15.7296 83.643 14.7807 84.525 12.9558L87.6855 6.60548C87.8325 6.31351 87.759 6.53248 87.8325 6.3865C87.8325 7.84635 87.9795 8.72226 87.9795 10.1821C87.9795 11.715 88.2735 16.7515 87.6855 17.9193C87.2445 17.9923 86.5095 18.2113 85.995 18.2113V18.9412H91.875C92.3895 18.9412 92.316 18.6493 92.316 18.2113C91.875 18.2113 91.434 18.1383 91.0665 17.9923C89.964 17.7004 90.1845 16.0215 90.1845 14.1967C90.1845 13.0288 90.0375 12.3719 90.0375 11.35V4.63467C90.0375 3.90475 90.405 3.53978 91.0665 3.46679C92.169 3.24781 92.463 3.68577 92.169 2.51789C91.3605 2.66387 88.7145 2.88285 87.9795 2.51789C87.906 3.53978 87.2445 4.99964 86.8035 5.87555C86.289 6.97044 85.7745 7.91934 85.26 9.01424L81.8055 15.3646C81.3645 13.4668 76.2195 5.51059 76.2195 2.51789C75.4845 2.88285 72.8385 2.66387 72.03 2.51789C71.9565 2.80986 71.9565 2.80986 71.9565 3.24781ZM136.93 4.78066C136.93 12.0799 147 11.277 147 5.51059C147 3.75876 147 2.73686 145.383 1.27701C143.766 -0.182845 140.973 -0.474815 139.135 0.839053C137.886 1.78796 136.93 3.10183 136.93 4.78066ZM103.194 9.67117V10.1821C103.855 10.4011 104.223 10.912 104.223 11.788C104.223 12.6639 104.37 17.0434 104.003 17.7004C103.782 18.1383 103.12 18.1383 102.679 18.2113V18.9412H107.237C107.751 18.9412 107.31 18.9412 107.677 18.7953C107.604 17.9923 107.09 18.0653 106.354 17.9193C106.061 16.6055 106.207 13.3208 106.207 11.788C106.207 10.1091 109.147 9.3792 110.397 10.985C111.059 11.861 110.911 16.5325 110.691 17.4814C110.544 17.9193 110.397 18.1383 109.221 18.2113V18.7953C109.809 19.0872 113.41 18.9412 114.293 18.9412V18.2113C112.234 17.9923 112.675 17.2624 112.675 13.0288C112.675 10.912 112.823 8.79526 109.662 8.79526C108.706 8.79526 107.751 9.16022 107.016 9.59818C106.648 9.81715 106.648 9.81715 106.207 9.89015V8.50329C105.252 8.50329 104.223 9.3792 103.194 9.67117ZM2.8665 3.3938C3.8955 3.83175 4.998 3.24781 4.998 4.78066L5.145 11.058H7.203V4.3427C7.203 3.3208 7.7175 3.53978 8.7465 3.53978C12.7155 3.53978 13.524 8.86825 10.6575 10.6931C8.3055 12.1529 2.5725 11.204 0 11.204L0.588 11.423C4.9245 12.4449 14.7735 13.4668 14.7735 7.18942C14.7735 4.70767 13.0095 3.17482 10.5105 2.73686C8.232 2.29891 6.5415 2.66387 4.41 2.66387C3.528 2.66387 2.94 2.51789 2.8665 3.3938ZM32.5605 9.08723C32.2665 9.16022 31.8255 9.3792 31.5315 9.52518C31.0905 9.81715 31.164 9.81715 31.311 10.3281C33.222 10.3281 32.5605 10.1821 32.5605 11.204C32.5605 11.9339 32.781 17.5544 32.4135 17.9193C31.6785 18.2843 31.0905 17.8464 31.017 18.7953C31.605 19.0142 34.3245 18.8682 35.5005 18.9412C36.456 18.9412 36.309 19.0872 36.603 18.5033C35.868 17.4814 34.6185 19.0142 34.6185 16.4595C34.6185 7.77336 33.957 11.131 37.926 10.1821C38.1465 9.30621 38.073 9.96314 37.926 9.08723C34.839 9.08723 34.6185 9.45219 34.6185 8.21132C34.6185 6.24051 34.839 1.49599 37.5585 2.59088C38.2935 2.88285 38.661 3.83175 39.3225 3.83175C40.2045 3.83175 40.6455 3.10183 40.3515 2.3719C39.6165 0.766061 33.957 0.328104 32.928 6.09453C32.781 6.89745 32.5605 8.28431 32.5605 9.08723Z" fill="white"/>
<path fill-rule="evenodd" clip-rule="evenodd" d="M97.167 9.67112C101.062 9.67112 101.209 18.3572 97.608 18.3572C94.374 18.3572 93.7125 13.3208 94.962 11.131C95.3295 10.401 96.138 9.67112 97.167 9.67112ZM92.169 13.6127V14.6346C92.169 20.547 102.532 21.131 102.532 13.9047C102.532 6.8244 92.169 7.48134 92.169 13.6127ZM123.627 9.8171C124.803 9.8901 125.097 10.1821 125.538 11.131L127.302 15.9485C128.331 18.6492 128.404 19.0142 126.787 21.7879C126.42 22.3718 126.346 22.7368 125.464 22.7368C124.435 22.8098 124.215 22.8828 124.215 23.9047C124.215 24.8536 124.803 24.9266 125.464 24.9266C126.787 24.9266 127.375 22.9558 128.11 21.3499L132.079 13.0288C132.888 11.4229 133.255 9.8901 134.946 9.8171V9.08718H130.462V9.8171C130.977 9.8171 131.491 9.96309 131.932 10.0361C131.932 10.766 131.124 12.5908 130.83 13.2478C130.536 13.8317 129.727 15.9485 129.36 16.1675L128.257 13.2478C128.037 12.5178 127.375 10.766 127.302 10.0361C128.772 9.74411 128.478 9.8171 128.478 9.08718H124.068C123.553 9.08718 123.627 9.30616 123.627 9.8171ZM40.7925 11.7879C38.2935 11.7879 41.3805 9.67112 42.483 9.67112C43.659 9.67112 44.247 10.2551 44.247 11.204C44.247 11.8609 43.365 11.5689 42.7035 11.6419C42.1155 11.7149 41.5275 11.7879 40.7925 11.7879ZM37.779 14.0507C37.779 19.7441 42.924 19.8901 44.982 18.4302C45.6435 17.9923 46.3785 17.2624 46.2315 16.4594C44.6145 16.5324 46.011 17.6273 43.071 17.6273C40.6455 17.6273 39.1755 14.5616 39.6165 12.6638C41.601 12.6638 44.541 12.8828 46.2315 12.5178C46.2315 11.058 46.2315 10.62 45.4965 9.8171C43.8795 8.13827 40.572 8.64922 39.102 10.401C38.367 11.277 37.779 12.5178 37.779 14.0507ZM117.6 11.7879H116.718C116.718 10.985 117.085 10.693 117.526 10.3281C118.776 9.30616 121.054 9.30616 121.054 11.204C121.054 11.8609 120.172 11.5689 119.511 11.6419C118.923 11.7149 118.335 11.7879 117.6 11.7879ZM114.586 14.0507C114.586 15.8025 114.88 17.1164 116.13 18.2113C117.747 19.5251 120.393 19.4521 121.936 18.3572C122.083 18.2113 123.994 16.4594 122.745 16.4594C121.789 16.4594 122.598 17.6273 119.878 17.6273C117.747 17.6273 116.571 15.4375 116.277 13.4667C116.13 12.2989 116.644 12.6638 119.29 12.6638C120.54 12.6638 122.01 12.7368 123.039 12.5178C123.039 11.8609 123.406 11.058 122.377 9.8901C120.76 8.06528 117.379 8.64922 115.909 10.401C115.174 11.204 114.586 12.5908 114.586 14.0507ZM16.2435 11.7879C16.3905 9.45214 20.6535 8.79521 20.6535 11.058C20.6535 12.0069 17.199 11.7879 16.2435 11.7879ZM14.1855 13.6127C14.1855 15.2186 14.112 16.7514 15.582 18.0653C17.4195 19.7441 20.874 19.5981 22.344 17.5543C22.8585 16.7514 22.7115 16.0215 21.8295 16.8244C19.257 19.0872 15.9495 16.6054 15.9495 13.0288C15.9495 12.3718 18.0075 12.6638 19.404 12.6638C22.344 12.6638 22.7115 12.9558 22.7115 11.6419C22.7115 9.8901 21.021 8.79521 18.963 8.79521C16.3905 8.79521 14.1855 11.131 14.1855 13.6127ZM46.9665 13.7587V14.7806C46.9665 18.8682 51.6705 20.1821 54.39 18.4302C54.831 18.1383 55.86 17.2624 55.86 16.6054C55.86 16.0945 55.86 16.6054 55.713 16.1675C54.9045 16.2405 55.272 16.4594 54.6105 16.9704C52.6995 18.5032 48.804 17.4813 48.804 13.3208C48.804 11.4229 50.127 9.8171 52.1115 9.8171C53.802 9.8171 54.243 11.204 54.831 11.204C55.3455 11.204 55.7865 10.401 55.3455 9.52513C54.978 8.72221 53.4345 8.79521 52.5525 8.79521C50.862 8.79521 49.539 9.37915 48.657 10.1821C47.775 10.912 46.9665 12.2989 46.9665 13.7587ZM56.448 10.1821C56.8155 10.401 57.036 10.3281 57.6975 10.3281V16.1675C57.6975 20.985 62.9895 18.9412 62.9895 17.9193C62.9895 17.1894 62.475 17.6273 62.181 17.7733C61.74 17.9923 61.5195 18.0653 60.858 17.9193C60.0495 17.6273 59.682 16.7514 59.682 15.6565V10.3281C63.1365 10.3281 63.357 10.693 62.9895 9.08718C59.535 9.08718 59.7555 9.37915 59.682 8.21126C59.682 7.70032 59.682 7.26236 59.241 7.40835C58.7265 7.62732 58.8 8.79521 57.036 9.45214C56.3745 9.67112 56.448 9.45214 56.448 10.1821ZM23.667 9.8901C23.667 10.62 24.549 10.3281 24.549 11.058C24.549 12.7368 24.696 16.5324 24.402 17.9193C23.961 17.9923 23.5935 18.1383 23.079 18.2113V18.9412H28.1505C28.5915 18.9412 28.518 18.6492 28.5915 18.2113C28.2975 18.2113 27.4155 18.0653 27.195 17.9923C26.754 17.9193 26.5335 17.6273 26.5335 17.0434V12.2259C26.5335 11.4959 26.901 10.474 27.7095 10.474C28.2975 10.474 28.959 11.058 29.106 11.058C31.3845 11.058 30.6495 7.40835 27.636 9.30616C27.2685 9.59813 27.048 9.96309 26.5335 10.0361V8.50324C25.7985 8.50324 25.137 9.01418 24.255 9.37915C23.8875 9.52513 23.667 9.45214 23.667 9.8901ZM3.01349 18.2113V18.9412H9.62849V18.2113C6.76199 18.1383 7.20299 17.1164 7.20299 12.8098C6.02699 12.8098 6.17399 12.8828 5.14499 12.6638C5.14499 14.0507 4.99799 15.1456 4.99799 16.3135C4.99799 17.9923 4.48349 18.0653 3.01349 18.2113Z" fill="white"/>
<path fill-rule="evenodd" clip-rule="evenodd" d="M92.757 26.3135C92.757 24.7077 94.5945 24.7077 94.5945 26.3135C94.5945 27.7734 92.757 27.9924 92.757 26.3135ZM91.581 30.0362H92.757V28.0654C95.991 30.1821 96.873 24.1967 94.1535 24.1967C92.757 24.1967 93.4185 24.4157 92.61 24.6347V24.1967H91.581V30.0362ZM98.784 25.0727H98.931C99.372 25.0727 99.4455 25.4376 99.5925 25.7296H98.049C98.1225 25.3646 98.343 25.0727 98.784 25.0727ZM96.873 25.8756C96.873 27.0435 96.873 28.4303 99.078 28.4303C99.5925 28.4303 100.107 28.3573 100.475 28.2113L100.328 27.3354C99.4455 27.5544 98.1225 27.8464 98.049 26.6055H100.622C100.622 24.9997 100.548 24.1967 98.637 24.1967C97.755 24.1967 96.873 25.0727 96.873 25.8756ZM76.2195 26.7515C76.2195 29.4522 78.7185 28.1383 78.8655 28.1383L79.968 28.2843V24.1967H78.792C78.792 25.5836 79.1595 27.4814 78.1305 27.4814C77.1015 27.4814 77.3955 25.3646 77.3955 24.1967H76.2195V26.7515ZM110.691 25.0727H110.838C111.279 25.0727 111.426 25.3646 111.573 25.7296H109.956C110.03 25.3646 110.25 25.0727 110.691 25.0727ZM108.854 26.1675C108.854 29.4522 112.382 28.4303 112.382 28.0654C112.382 27.0435 112.014 27.4814 111.206 27.5544C110.544 27.5544 110.03 27.3354 109.956 26.6055H112.676C112.676 23.0289 108.854 23.7588 108.854 26.1675ZM105.914 24.1967H105.399V25.2186H105.914V28.2843H107.09V25.2186H107.972V24.1967H107.09L107.237 23.4668C107.604 23.2478 107.604 23.3208 108.266 23.3208V22.2989C107.237 22.2989 105.987 22.2259 105.914 24.1967ZM85.848 23.4668V24.1967H85.26V25.2186H85.848C85.848 27.7734 85.6275 28.4303 87.5385 28.4303C88.1265 28.4303 87.9795 28.1383 87.9795 27.4814C86.8035 27.4814 87.024 27.3354 87.024 25.2186H87.9795V24.1967H87.024V23.1748C86.5095 23.3208 86.3625 23.3938 85.848 23.4668ZM118.556 23.4668V24.1967H118.041V25.2186H118.556C118.556 27.4814 118.335 28.4303 120.32 28.4303C120.834 28.4303 120.761 28.1383 120.761 27.4814C119.585 27.4814 120.246 27.5544 119.879 27.3354C119.658 26.3135 119.732 26.3865 119.732 25.2186H120.761V24.1967H119.732V23.1748C119.291 23.3208 119.07 23.3938 118.556 23.4668ZM81.5115 25.2916C81.5115 26.9705 82.614 26.3135 83.2755 27.1894C82.761 27.9194 82.761 27.6274 81.5115 27.3354C81.438 27.7734 80.9235 28.4303 82.6875 28.4303C84.525 28.4303 84.8925 26.7515 83.7165 26.0216C83.4225 25.8756 82.908 25.8026 82.761 25.5836C82.3935 25.2186 82.761 25.0727 83.202 25.0727C83.643 25.0727 83.4225 25.1456 84.0105 25.2186C84.1575 24.8537 84.084 24.6347 84.231 24.3427C83.643 24.2697 81.5115 23.6858 81.5115 25.2916ZM113.705 26.3135C113.705 27.7004 114.587 28.4303 115.983 28.4303C116.498 28.4303 116.571 28.3573 117.012 28.2843V27.3354C113.925 28.0654 114.734 25.0727 116.13 25.0727C116.498 25.0727 116.277 25.1456 116.865 25.2186C117.38 24.0508 116.939 24.1967 115.542 24.1967C114.513 24.1967 113.705 25.2186 113.705 26.3135ZM73.5 26.4595C73.5 27.8464 72.3975 27.4084 71.9565 27.3354C71.9565 27.9194 71.883 27.9194 71.8095 28.2843C75.3375 29.1602 74.676 26.4595 74.676 22.7369H73.5V26.4595ZM102.092 28.2843H103.194C103.194 26.1675 102.9 25.5836 104.003 25.2916C104.37 25.1456 104.37 25.7296 104.37 24.1967C103.562 24.1967 103.562 24.2697 103.047 24.6347V24.1967H102.092V28.2843Z" fill="white"/>
<path fill-rule="evenodd" clip-rule="evenodd" d="M141.267 3.46678C141.635 3.46678 141.635 3.2478 141.635 4.41569C141.635 4.78065 141.635 6.2405 141.488 6.45948C141.414 6.60547 141.194 6.60547 140.973 6.60547V6.75145H142.296V6.60547C141.782 6.60547 141.782 6.67846 141.782 5.58357V3.97773C141.929 4.19671 142.076 4.41569 142.149 4.70766C142.223 4.78065 142.296 4.92663 142.37 4.99963L143.252 6.75145C143.325 6.82445 143.325 6.67846 143.399 6.60547L144.354 4.70766C144.428 4.63466 144.722 4.05072 144.722 3.97773V6.16751C144.722 6.60547 144.648 6.53247 144.281 6.60547V6.75145H145.604V6.60547C145.163 6.60547 145.163 6.53247 145.163 6.09452V3.68576C145.163 3.39379 145.31 3.46678 145.53 3.46678V3.2478H144.722C144.722 3.2478 144.722 3.3208 144.648 3.3208L144.575 3.61277C144.501 3.68576 144.428 3.83174 144.354 3.97773C144.354 4.05072 144.281 4.19671 144.207 4.2697C144.134 4.41569 144.134 4.56167 144.06 4.63466C143.913 4.85364 143.84 5.14561 143.693 5.36459C143.693 5.51058 143.619 5.58357 143.546 5.72955C143.546 5.80255 143.399 6.02153 143.399 6.09452L142.002 3.2478H141.267V3.46678Z" fill="white"/>
<path fill-rule="evenodd" clip-rule="evenodd" d="M138.842 3.46678H139.209C139.283 3.46678 139.283 3.61277 139.283 3.68576V4.99963C139.356 5.07262 139.65 4.99963 139.724 4.99963V3.39379C140.165 3.39379 140.385 3.39379 140.606 3.61277C140.826 3.75875 140.9 4.05072 140.9 4.41569C140.826 4.70766 140.679 4.92663 140.385 4.99963C140.018 5.21861 139.062 5.21861 138.621 5.14561C138.548 5.07262 138.401 5.07262 138.327 5.07262C138.474 5.14561 138.768 5.21861 138.915 5.21861C139.209 5.2916 139.503 5.2916 139.724 5.2916C140.385 5.2916 141.12 5.21861 141.341 4.56167C141.414 4.34269 141.414 4.12372 141.341 3.90474C141.194 3.53977 140.826 3.3208 140.385 3.2478H138.842V3.46678ZM138.842 6.60547V6.75145H140.165V6.60547C139.65 6.60547 139.724 6.60547 139.724 5.80255V5.43758H139.283V6.16751C139.283 6.60547 139.209 6.53247 138.842 6.60547Z" fill="white"/>
</g>
<defs>
<clipPath id="clip0_1214_816">
<rect width="147" height="30" fill="white"/>
</clipPath>
</defs>
</svg>
