<svg width="124" height="24" viewBox="0 0 124 24" fill="none" xmlns="http://www.w3.org/2000/svg">
<g clip-path="url(#clip0_1214_775)">
<path fill-rule="evenodd" clip-rule="evenodd" d="M9.7957 23.6407C16.7205 25.2438 23.7333 21.3315 25.4595 14.9029C27.1856 8.474 22.9724 1.96183 16.048 0.359095C9.12535 -1.24364 2.11254 2.66907 0.387111 9.0984C-1.33992 15.5265 2.87389 22.038 9.7957 23.6407ZM15.7789 7.26274C17.5693 7.83537 18.8787 8.69373 18.6213 10.2904C18.4352 11.4594 17.7373 12.0252 16.8108 12.2235C18.083 12.8385 18.7305 13.7817 18.1137 15.4167C17.3484 17.4472 15.5299 17.6187 13.1119 17.1937L12.5251 19.3773L11.1069 19.0492L11.6861 16.8949C11.3186 16.8102 10.943 16.7202 10.556 16.6227L9.9749 18.7872L8.55842 18.459L9.14531 16.2712C9.01299 16.2397 8.87976 16.2075 8.74563 16.1751C8.54406 16.1263 8.34052 16.077 8.1344 16.029L6.28892 15.6019L6.993 14.0947C6.993 14.0947 8.03778 14.3527 8.02371 14.3337C8.4252 14.4259 8.60334 14.1829 8.6735 14.0209L9.60093 10.5691C9.63571 10.5768 9.66974 10.5847 9.70255 10.5924C9.71888 10.5963 9.73506 10.5999 9.75079 10.6036C9.69423 10.5826 9.64282 10.5691 9.60335 10.5597L10.2649 8.0956C10.2822 7.81585 10.1784 7.46299 9.60411 7.32987C9.62634 7.31599 8.57415 7.09211 8.57415 7.09211L8.95144 5.68588L10.907 6.13926L10.9055 6.146C11.1995 6.21388 11.5024 6.27837 11.811 6.34362L12.3921 4.1814L13.8094 4.50952L13.2399 6.62938C13.6203 6.70999 14.0032 6.79137 14.3761 6.87762L14.9415 4.77165L16.3595 5.09976L15.7789 7.26274ZM11.2934 15.1048C12.4505 15.3886 14.9794 16.0087 15.3813 14.5087C15.7934 12.975 13.3407 12.4641 12.144 12.2148C12.0103 12.1869 11.8922 12.1623 11.7956 12.1399L11.017 15.0382C11.0963 15.0565 11.1893 15.0793 11.2934 15.1048ZM12.3844 10.8697C13.3492 11.1088 15.4534 11.6301 15.82 10.2669C16.1943 8.87233 14.1492 8.45199 13.1502 8.24668C13.0378 8.2236 12.9388 8.20321 12.8579 8.18449L12.1519 10.8132C12.2185 10.8286 12.2969 10.848 12.3844 10.8697Z" fill="white"/>
<path d="M37.8753 7.26034C38.9234 7.26034 39.8289 7.43472 40.5898 7.77708C41.3544 8.12283 41.9852 8.58858 42.4914 9.1743C42.9906 9.76305 43.3621 10.4513 43.6021 11.2398C43.8404 12.0306 43.9599 12.8808 43.9599 13.7908C43.9599 15.1888 43.6841 16.5096 43.1271 17.7546C42.5702 19.0015 41.8144 20.0829 40.8532 21.0054C39.8927 21.9268 38.7585 22.6531 37.4508 23.1898C36.145 23.7268 34.7254 23.9953 33.2011 23.9953C33.004 23.9953 32.6574 23.9901 32.1679 23.9806C31.6784 23.9713 31.1157 23.9244 30.4858 23.8453C29.8515 23.7631 29.1812 23.6416 28.4732 23.4789C27.7655 23.3191 27.0935 23.0954 26.4604 22.8111L32.1198 0.732793L37.1887 0.00341797L35.1624 7.83822C35.5961 7.65672 36.0331 7.51609 36.4694 7.41372C36.9059 7.31284 37.3744 7.26034 37.8753 7.26034ZM33.6236 20.2618C34.3869 20.2618 35.1063 20.0874 35.7819 19.7451C36.4597 19.4023 37.0445 18.9396 37.5344 18.3633C38.0244 17.7843 38.4121 17.1321 38.6947 16.4035C38.9775 15.6748 39.1205 14.9148 39.1205 14.1238C39.1205 13.1523 38.9456 12.3944 38.597 11.8465C38.2485 11.301 37.6035 11.0265 36.6669 11.0265C36.3599 11.0265 35.9644 11.0808 35.4742 11.178C34.9823 11.281 34.5419 11.4952 34.1474 11.8173L31.9898 20.1376C32.1198 20.1591 32.2349 20.1793 32.3331 20.1984C32.4292 20.2191 32.5354 20.2337 32.6412 20.2438C32.7531 20.2554 32.8812 20.2614 33.0359 20.2614C33.1906 20.2614 33.384 20.2618 33.6236 20.2618Z" fill="white"/>
<path d="M49.2164 23.5729H44.3749L48.4636 7.59925H53.3382L49.2164 23.5729ZM51.5724 5.65302C50.8966 5.65302 50.284 5.46627 49.7404 5.09203C49.1922 4.72003 48.9207 4.14741 48.9207 3.37567C48.9207 2.95117 49.0137 2.55292 49.1979 2.17717C49.3848 1.80219 49.6292 1.47931 49.9354 1.20481C50.241 0.932561 50.5954 0.715061 50.9976 0.551186C51.4023 0.389951 51.8328 0.309326 52.2917 0.309326C52.9669 0.309326 53.5765 0.496076 54.1221 0.870326C54.6657 1.24644 54.9391 1.81906 54.9391 2.58667C54.9391 3.01267 54.8467 3.41242 54.6609 3.78741C54.4763 4.16241 54.232 4.48528 53.9258 4.75977C53.6225 5.03239 53.265 5.24914 52.8636 5.41152C52.4585 5.57539 52.0295 5.65302 51.5724 5.65302Z" fill="white"/>
<path d="M57.5813 3.61927L62.6521 2.88989L61.407 7.59835H66.8376L65.8569 11.3025H60.459L59.0212 16.89C58.8887 17.3558 58.8136 17.7908 58.7926 18.195C58.7687 18.6011 58.824 18.9498 58.955 19.2435C59.085 19.5378 59.3188 19.7648 59.6581 19.9253C59.9957 20.0883 60.4793 20.1705 61.1133 20.1705C61.6355 20.1705 62.1445 20.1243 62.6364 20.0328C63.1255 19.9428 63.621 19.8176 64.1227 19.6538L64.4837 23.1173C63.8295 23.34 63.1211 23.5316 62.3577 23.6928C61.5931 23.8563 60.6879 23.9351 59.642 23.9351C58.1378 23.9351 56.9719 23.7278 56.1409 23.3148C55.3113 22.899 54.7249 22.3308 54.3739 21.6116C54.0278 20.895 53.8731 20.0688 53.9163 19.1381C53.9612 18.2051 54.1126 17.2245 54.3739 16.1918L57.5813 3.61927Z" fill="white"/>
<path d="M66.6243 17.1941C66.6243 15.8182 66.8641 14.5207 67.3436 13.3061C67.8222 12.0904 68.5116 11.0273 69.4063 10.1149C70.2977 9.20706 71.3838 8.48778 72.662 7.95978C73.9342 7.43478 75.3589 7.17004 76.9287 7.17004C77.9114 7.17004 78.789 7.25629 79.5612 7.42917C80.3367 7.60354 81.0384 7.82892 81.6729 8.11167L80.0031 11.6366C79.567 11.4724 79.1142 11.3276 78.6461 11.1964C78.1776 11.0626 77.6057 10.9981 76.9291 10.9981C75.3132 10.9981 74.0357 11.5151 73.0848 12.5461C72.1377 13.5776 71.6608 14.9662 71.6608 16.7081C71.6608 17.7404 71.9006 18.5752 72.3821 19.2139C72.8612 19.8524 73.7461 20.17 75.0309 20.17C75.6649 20.17 76.2769 20.1086 76.8629 19.9886C77.4534 19.8671 77.9748 19.7141 78.4341 19.5334L78.7955 23.1467C78.1832 23.3672 77.5078 23.5664 76.7672 23.7407C76.0248 23.9092 75.1411 23.9965 74.1164 23.9965C72.7638 23.9965 71.6187 23.8127 70.6821 23.4509C69.7451 23.0834 68.9709 22.5955 68.361 21.9775C67.7478 21.358 67.3076 20.6347 67.0354 19.8044C66.7632 18.9749 66.6243 18.1034 66.6243 17.1941Z" fill="white"/>
<path d="M88.1314 23.9965C86.9758 23.9965 85.9722 23.833 85.1208 23.5094C84.2718 23.1857 83.5687 22.7317 83.0125 22.1429C82.4555 21.5572 82.0386 20.863 81.7531 20.0632C81.4676 19.2637 81.3303 18.3784 81.3303 17.4082C81.3303 16.1914 81.5407 14.9749 81.966 13.7617C82.3893 12.5461 83.0173 11.4536 83.8486 10.4828C84.6733 9.51036 85.6907 8.71539 86.8885 8.09553C88.0853 7.47978 89.4618 7.17004 91.0079 7.17004C92.1424 7.17004 93.1409 7.3339 94.0039 7.65753C94.863 7.9804 95.5707 8.43828 96.13 9.02406C96.6833 9.61281 97.1039 10.3039 97.3865 11.1049C97.6713 11.9029 97.8119 12.7904 97.8119 13.7614C97.8119 14.9744 97.6043 16.1909 97.1923 17.4079C96.78 18.6187 96.168 19.7137 95.3602 20.6869C94.554 21.6577 93.546 22.4522 92.335 23.0695C91.1259 23.6867 89.7235 23.9965 88.1314 23.9965ZM90.5511 10.9984C89.8334 10.9984 89.1989 11.1919 88.6557 11.5741C88.1104 11.9606 87.6524 12.4466 87.2832 13.0327C86.91 13.6214 86.6333 14.2634 86.4464 14.9614C86.261 15.6607 86.1701 16.3219 86.1701 16.9499C86.1701 17.9636 86.3461 18.7529 86.6923 19.3211C87.0432 19.8862 87.6738 20.1704 88.5902 20.1704C89.3103 20.1704 89.9417 19.9784 90.4882 19.5922C91.0301 19.2086 91.4885 18.7222 91.8605 18.1349C92.2313 17.5492 92.5104 16.9054 92.6973 16.2064C92.8803 15.5092 92.9736 14.8444 92.9736 14.2174C92.9736 13.2064 92.7983 12.4151 92.449 11.8478C92.1 11.2826 91.4667 10.9984 90.5511 10.9984Z" fill="white"/>
<path d="M103.087 23.5729H98.2421L102.331 7.59925H107.208L103.087 23.5729ZM105.44 5.65302C104.764 5.65302 104.152 5.46627 103.609 5.09203C103.064 4.72003 102.79 4.14741 102.79 3.37567C102.79 2.95117 102.884 2.55292 103.069 2.17717C103.254 1.80219 103.499 1.47931 103.806 1.20481C104.11 0.932561 104.467 0.715061 104.869 0.551186C105.271 0.389951 105.701 0.309326 106.159 0.309326C106.836 0.309326 107.447 0.496076 107.992 0.870326C108.536 1.24644 108.811 1.81906 108.811 2.58667C108.811 3.01267 108.714 3.41242 108.531 3.78741C108.348 4.16241 108.102 4.48528 107.797 4.75977C107.49 5.03239 107.137 5.24914 106.735 5.41152C106.329 5.57539 105.899 5.65302 105.44 5.65302Z" fill="white"/>
<path d="M110.697 8.32545C111.064 8.2257 111.475 8.10571 111.921 7.97521C112.369 7.84471 112.869 7.72321 113.428 7.61371C113.981 7.50084 114.605 7.40934 115.291 7.33846C115.978 7.26609 116.76 7.23083 117.628 7.23083C120.182 7.23083 121.942 7.92121 122.914 9.29787C123.885 10.6744 124.053 12.5584 123.422 14.9464L121.195 23.5713H116.322L118.481 15.1279C118.612 14.6007 118.716 14.091 118.792 13.593C118.869 13.0995 118.865 12.6645 118.775 12.2881C118.689 11.9161 118.486 11.6116 118.171 11.3757C117.852 11.1436 117.369 11.0269 116.714 11.0269C116.083 11.0269 115.441 11.0899 114.785 11.2114L111.612 23.571H106.737L110.697 8.32545Z" fill="white"/>
</g>
<defs>
<clipPath id="clip0_1214_775">
<rect width="124" height="24" fill="white"/>
</clipPath>
</defs>
</svg>
