<svg width="38" height="30" viewBox="0 0 38 30" fill="none" xmlns="http://www.w3.org/2000/svg">
<g clip-path="url(#clip0_1214_784)">
<path d="M24.888 0H11.0543L9.90709 6.23321L22.3937 6.2476C28.5444 6.2476 30.3578 8.4213 30.306 12.0202C30.2764 13.8628 29.4548 16.9866 29.0995 18.0014C28.1521 20.7006 26.2055 23.774 18.9075 23.7668L6.7688 23.7596L5.62524 30H19.4293C24.2996 30 26.3646 29.4458 28.5629 28.4669C33.4258 26.2716 36.3198 21.6075 37.4819 15.5182C39.2028 6.44914 37.0563 0 24.888 0Z" fill="white"/>
<path d="M5.08492 11.869C1.45812 11.869 0.940008 14.1651 0.599533 15.5542C0.148033 17.3681 0 18.1094 0 18.1094H14.1667C17.7935 18.1094 18.3116 15.8134 18.6521 14.4242C19.1036 12.6104 19.2517 11.869 19.2517 11.869H5.08492Z" fill="white"/>
</g>
<defs>
<clipPath id="clip0_1214_784">
<rect width="38" height="30" fill="white"/>
</clipPath>
</defs>
</svg>
