<svg width="73" height="30" viewBox="0 0 73 30" fill="none" xmlns="http://www.w3.org/2000/svg">
<g clip-path="url(#clip0_1214_789)">
<path d="M25.7965 15.3209C25.7965 15.4281 25.6894 15.5352 25.5823 15.5352H21.5506C21.6576 16.5352 22.4068 17.4638 23.4772 17.4638C24.1909 17.4638 24.7261 17.1781 25.1542 16.6066C25.1898 16.5352 25.2613 16.4995 25.3325 16.4995C25.4396 16.4995 25.5467 16.5709 25.5467 16.7138C25.5467 16.7495 25.5467 16.7852 25.511 16.8209C25.1186 17.5352 24.2979 17.8924 23.513 17.8924C22.1572 17.8924 21.1937 16.6781 21.1937 15.3566C21.1937 14.0352 22.1572 12.8209 23.513 12.8209C24.8688 12.8209 25.7965 13.9995 25.7965 15.3209ZM25.3683 15.1066C25.2969 14.1066 24.5119 13.1781 23.4416 13.1781C22.3712 13.1781 21.622 14.1066 21.5149 15.1066H25.3683Z" fill="white"/>
<path d="M30.7198 12.8928C30.8269 12.8928 30.934 13 30.934 13.1071C30.934 13.2143 30.8625 13.3214 30.7198 13.3214H29.6494V17.5714C29.6494 17.6786 29.5782 17.7857 29.4355 17.7857C29.3284 17.7857 29.2213 17.6786 29.2213 17.5714V13.2857H28.1866C28.0797 13.2857 27.9726 13.2143 27.9726 13.0714C27.9726 12.9643 28.0439 12.8571 28.1866 12.8571H29.2213V11.2857C29.2213 11.1786 29.2927 11.0714 29.4355 11.0714C29.5425 11.0714 29.6494 11.1428 29.6494 11.2857V12.8571H30.7198V12.8928Z" fill="white"/>
<path d="M37.3565 14.964V17.5355C37.3565 17.6426 37.2496 17.7497 37.1425 17.7497C37.0355 17.7497 36.9284 17.6783 36.9284 17.5355V14.964C36.9284 14.1069 36.429 13.214 35.4655 13.214C34.2168 13.214 33.6816 14.2855 33.753 15.4283C33.753 15.464 33.753 15.5712 33.753 15.6069V17.5355C33.753 17.6426 33.6816 17.7497 33.5389 17.7497C33.4318 17.7497 33.3248 17.6783 33.3248 17.5355V9.03545C33.3248 8.92831 33.3962 8.82117 33.5389 8.82117C33.646 8.82117 33.753 8.92831 33.753 9.03545V13.8212C34.1097 13.214 34.7164 12.7855 35.4655 12.7855C36.6786 12.7855 37.3565 13.8569 37.3565 14.964Z" fill="white"/>
<path d="M44.5992 15.3217C44.5992 15.4288 44.4922 15.536 44.3851 15.536H40.3533C40.4604 16.536 41.2097 17.4645 42.2801 17.4645C42.9936 17.4645 43.5288 17.1788 43.957 16.6074C43.9927 16.536 44.064 16.5003 44.1355 16.5003C44.2424 16.5003 44.3494 16.5717 44.3494 16.7145C44.3494 16.7503 44.3494 16.786 44.3138 16.8217C43.9213 17.536 43.1007 17.8931 42.3157 17.8931C40.96 17.8931 39.9966 16.6788 39.9966 15.3574C39.9966 14.036 40.96 12.8217 42.3157 12.8217C43.6359 12.786 44.5992 14.0003 44.5992 15.3217ZM44.1711 15.1074C44.0997 14.1074 43.3147 13.1788 42.2443 13.1788C41.1739 13.1788 40.4248 14.1074 40.3177 15.1074H44.1711Z" fill="white"/>
<path d="M49.5944 13.0705C49.5944 13.2134 49.523 13.2848 49.4159 13.2848C48.2386 13.4634 47.7034 14.4277 47.7034 15.5705V17.4991C47.7034 17.6063 47.632 17.7134 47.4893 17.7134C47.3822 17.7134 47.2751 17.642 47.2751 17.4991V13.1063C47.2751 12.9991 47.3466 12.892 47.4893 12.892C47.5963 12.892 47.7034 12.9634 47.7034 13.1063V13.9991C48.0245 13.4277 48.7024 12.892 49.4159 12.892C49.4517 12.892 49.5944 12.9634 49.5944 13.0705Z" fill="white"/>
<path d="M56.2306 15.3217C56.2306 15.4288 56.1235 15.536 56.0165 15.536H51.9847C52.0918 16.536 52.8411 17.4645 53.9115 17.4645C54.625 17.4645 55.1602 17.1788 55.5883 16.6074C55.624 16.536 55.6954 16.5003 55.7667 16.5003C55.8737 16.5003 55.9808 16.5717 55.9808 16.7145C55.9808 16.7503 55.9808 16.786 55.9452 16.8217C55.5527 17.536 54.7321 17.8931 53.9471 17.8931C52.5913 17.8931 51.6279 16.6788 51.6279 15.3574C51.6279 14.036 52.5913 12.8217 53.9471 12.8217C55.2315 12.786 56.2306 14.0003 56.2306 15.3217ZM55.8025 15.1074C55.731 14.1074 54.9461 13.1788 53.8757 13.1788C52.8053 13.1788 52.0561 14.1074 51.9491 15.1074H55.8025Z" fill="white"/>
<path d="M62.7606 13.1072V14.5V17.5357C62.7606 17.6429 62.6536 17.75 62.5465 17.75C62.4394 17.75 62.3324 17.6786 62.3324 17.5357V16.6786C62.0113 17.3572 61.4047 17.8215 60.6555 17.8215C59.4424 17.8215 58.8002 16.7857 58.8002 15.6786V13.0715C58.8002 12.9643 58.8714 12.8572 59.0143 12.8572C59.1212 12.8572 59.2283 12.9643 59.2283 13.0715V15.7143C59.2283 16.5715 59.7278 17.4643 60.6912 17.4643C62.047 17.4643 62.3682 16.1786 62.3682 14.7857V13.1429C62.3682 13.0357 62.4394 12.9286 62.5821 12.9286C62.6536 12.9286 62.7606 13 62.7606 13.1072Z" fill="white"/>
<path d="M73.0005 14.929V17.5361C73.0005 17.6432 72.8934 17.7504 72.7865 17.7504C72.6794 17.7504 72.5724 17.679 72.5724 17.5361V14.929C72.5724 14.0718 72.0728 13.2147 71.1095 13.2147C69.8964 13.2147 69.4325 14.5361 69.4325 15.5361V17.5361C69.4325 17.6432 69.3256 17.7504 69.2185 17.7504C69.1114 17.7504 69.0044 17.679 69.0044 17.5361V14.929C69.0044 14.0718 68.5048 13.2147 67.5415 13.2147C66.2928 13.2147 65.7932 14.179 65.8289 15.4647C65.8289 15.5004 65.8289 15.5361 65.8289 15.5718V17.5361C65.8289 17.6432 65.7576 17.7504 65.6149 17.7504C65.5078 17.7504 65.4008 17.679 65.4008 17.5361V13.1075C65.4008 13.0004 65.4722 12.8932 65.6149 12.8932C65.722 12.8932 65.8289 12.9647 65.8289 13.1075V13.8575C66.1857 13.2504 66.7923 12.8218 67.5415 12.8218C68.3621 12.8218 69.0044 13.3575 69.2542 14.1075C69.5752 13.3575 70.2532 12.8218 71.0739 12.8218C72.3226 12.7861 73.0005 13.8218 73.0005 14.929Z" fill="white"/>
<path d="M0 16.2137L8.74139 28.5709V21.3923L0 16.2137Z" fill="white"/>
<path d="M0 14.5363L8.74139 19.7506V10.572L0 14.5363Z" fill="white"/>
<path d="M0 14.5357L8.74139 10.5714V0L0 14.5357Z" fill="white"/>
<path d="M17.5184 16.2137L8.74121 28.5709V21.3923L17.5184 16.2137Z" fill="white"/>
<path d="M17.5184 14.5363L8.74121 19.7506V10.572L17.5184 14.5363Z" fill="white"/>
<path d="M17.5184 14.5357L8.74121 10.5714V0L17.5184 14.5357Z" fill="white"/>
</g>
<defs>
<clipPath id="clip0_1214_789">
<rect width="73" height="30" fill="white"/>
</clipPath>
</defs>
</svg>
