<svg width="152" height="30" viewBox="0 0 152 30" fill="none" xmlns="http://www.w3.org/2000/svg">
<g clip-path="url(#clip0_1214_772)">
<path d="M6.97283 15L3.52289 18.3797L0.0759277 15L3.52289 11.6203L6.97283 15ZM15.3368 6.7935L21.2437 12.588L24.6907 9.20838L15.3368 0.0371094L5.98287 9.20838L9.42983 12.588L15.3368 6.7935ZM27.1537 11.6203L23.7067 15L27.1537 18.3797L30.5976 15L27.1537 11.6203ZM15.3368 23.2065L9.42983 17.4149L5.98287 20.7916L15.3368 29.9629L24.6907 20.7916L21.2437 17.4149L15.3368 23.2065ZM15.3368 18.3797L18.7837 15L15.3368 11.6203L11.8898 15L15.3368 18.3797ZM51.7147 18.7042V18.6574C51.7147 16.453 50.522 15.3508 48.5809 14.6258C49.7736 13.968 50.7814 12.9359 50.7814 11.0853V11.0385C50.7814 8.45995 48.6763 6.7935 45.2562 6.7935H37.4916V23.2065H45.453C49.2309 23.2065 51.7207 21.7067 51.7207 18.7042H51.7147ZM47.1228 11.6876C47.1228 12.9067 46.094 13.4242 44.469 13.4242H41.0787V9.95974H44.7135C46.267 9.95974 47.1287 10.5678 47.1287 11.6466L47.1228 11.6876ZM48.0561 18.2539C48.0561 19.4731 47.0751 20.0344 45.447 20.0344H41.0787V16.4296H45.3337C47.2241 16.4296 48.062 17.1108 48.062 18.213L48.0561 18.2539ZM59.4525 23.2065V6.7935H55.7581V23.2065H59.4525ZM79.2487 23.2065V6.7935H75.6019V16.9003L67.7598 6.7935H64.3635V23.2065H67.9984V12.7722L76.1029 23.2065H79.2487ZM99.6472 23.2065L92.461 6.67656H89.0648L81.8935 23.2065H85.6476L87.1833 19.5257H94.262L95.7917 23.2065H99.6472ZM92.953 16.3361H88.4923L90.7167 11.0152L92.953 16.3361ZM117.201 23.2065V6.7935H113.554V16.9003L105.709 6.7935H102.316V23.2065H105.948V12.7722L114.055 23.2065H117.201ZM136.21 20.5577L133.869 18.2364C132.554 19.4058 131.382 20.1572 129.468 20.1572C126.6 20.1572 124.614 17.8183 124.614 15V14.9532C124.614 12.1407 126.647 9.8428 129.468 9.8428C131.141 9.8428 132.45 10.5445 133.75 11.6934L136.085 9.04466C134.531 7.54487 132.644 6.51284 129.486 6.51284C124.345 6.51284 120.758 10.334 120.758 14.9912V15.038C120.758 19.7508 124.417 23.4784 129.343 23.4784C132.566 23.4872 134.478 22.3616 136.198 20.5577H136.21ZM151.924 23.2065V19.9905H142.824V16.5378H150.716V13.3219H142.824V10.0065H151.793V6.79058H139.165V23.2036L151.924 23.2065Z" fill="white"/>
</g>
<defs>
<clipPath id="clip0_1214_772">
<rect width="152" height="30" fill="white"/>
</clipPath>
</defs>
</svg>
