<svg width="116" height="30" viewBox="0 0 116 30" fill="none" xmlns="http://www.w3.org/2000/svg">
<path d="M29.5086 30V0H31.0348V30H29.5086ZM45.5374 3.90045V3.75015H51.6436V18.7502C51.6436 22.8923 48.2263 26.2501 44.0108 26.2501C39.7954 26.2501 36.378 22.8923 36.378 18.7502H42.4843C42.4843 19.5785 43.1675 20.2502 44.0108 20.2502C44.8539 20.2502 45.5374 19.5785 45.5374 18.7502V3.90045ZM67.5867 11.8027C68.2621 12.5212 68.7832 13.3948 69.1355 14.3995C69.4817 15.3896 69.6574 16.51 69.6574 17.7302C69.6574 18.0226 69.6461 18.2887 69.6241 18.521C69.5923 18.8443 69.5623 18.9865 69.5019 19.1068L69.3333 19.4402H58.7722C58.8242 19.6777 58.901 19.9024 59.0027 20.1106C59.1927 20.5019 59.4464 20.846 59.7565 21.1339C60.0658 21.4211 60.428 21.6479 60.8331 21.8087C61.2355 21.9689 61.6773 22.0501 62.1463 22.0501C63.0701 22.0501 63.7736 21.8515 64.2364 21.46L64.4841 21.2509L68.9606 22.4762L68.4831 23.167C68.0605 23.7791 67.5311 24.3217 66.9092 24.7801C66.289 25.237 65.5734 25.6 64.7821 25.8592C63.9904 26.1187 63.1037 26.2501 62.1463 26.2501C61.0585 26.2501 60.0081 26.0597 59.0247 25.684C58.0346 25.3063 57.1532 24.7472 56.4051 24.022C55.6586 23.2997 55.0537 22.4069 54.6074 21.3686C54.1601 20.3297 53.9337 19.1357 53.9337 17.8202C53.9337 16.5865 54.1494 15.4493 54.5754 14.4401C55.0007 13.4336 55.5833 12.5567 56.3071 11.8339C57.0313 11.1118 57.877 10.5433 58.8213 10.144C59.7691 9.74319 60.7647 9.54009 61.7799 9.54009C62.9936 9.54009 64.1031 9.73629 65.0773 10.1239C66.0629 10.5154 66.9067 11.0803 67.5867 11.8027ZM58.9138 15.6902H64.772C64.7384 15.5543 64.6956 15.4207 64.645 15.2906C64.524 14.9812 64.3393 14.7035 64.096 14.4644C63.8498 14.2223 63.5372 14.0243 63.1669 13.8752C62.7947 13.7257 62.3382 13.6501 61.8104 13.6501C61.3494 13.6501 60.9339 13.7288 60.5764 13.8839C60.2133 14.0417 59.9031 14.2498 59.654 14.5024C59.3979 14.7625 59.1903 15.0602 59.0369 15.3865C58.9893 15.488 58.948 15.5894 58.9138 15.6902ZM96.7461 11.9239C97.4913 12.6673 98.0799 13.556 98.4956 14.5652C98.9099 15.5738 99.1199 16.6891 99.1199 17.8801C99.1199 19.0709 98.9099 20.1905 98.4962 21.2078C98.0811 22.2278 97.492 23.122 96.7461 23.8661C96.0005 24.6091 95.1126 25.1984 94.1069 25.6175C93.099 26.0372 91.9813 26.2501 90.7847 26.2501C89.6094 26.2501 88.4977 26.0374 87.4804 25.6183C86.4619 25.1986 85.5721 24.6083 84.8358 23.8631C84.1012 23.12 83.5183 22.2266 83.104 21.2078C82.6902 20.1917 82.4802 19.0721 82.4802 17.8801C82.4802 16.6877 82.6907 15.5725 83.1049 14.5652C83.5195 13.5571 84.1018 12.6694 84.8361 11.9269C85.5721 11.182 86.4619 10.5913 87.4804 10.1716C88.4977 9.75249 89.6094 9.54009 90.7847 9.54009C91.9813 9.54009 93.099 9.75279 94.1066 10.1725C95.1129 10.5916 96.0008 11.1811 96.7461 11.9239ZM94.0303 19.6772C94.2272 19.1677 94.3268 18.5632 94.3268 17.8801C94.3268 17.198 94.2272 16.5995 94.0315 16.1012C93.8383 15.6098 93.5748 15.1936 93.2477 14.8636C92.9247 14.5378 92.5507 14.2924 92.1364 14.1343C91.7099 13.9724 91.2555 13.8902 90.7847 13.8902C90.314 13.8902 89.859 13.9724 89.4331 14.1343C89.0212 14.2916 88.6546 14.5349 88.3426 14.858C88.0205 15.1912 87.754 15.6122 87.55 16.1092C87.3463 16.6052 87.2434 17.2007 87.2434 17.8801C87.2434 18.5606 87.3466 19.1627 87.5512 19.6688C87.7552 20.1749 88.0211 20.5996 88.3426 20.9318C88.6577 21.2584 89.0277 21.5083 89.4429 21.6742C89.8655 21.844 90.317 21.9301 90.7847 21.9301C91.2522 21.9301 91.7038 21.844 92.1269 21.6745C92.5443 21.5071 92.9217 21.2554 93.2477 20.9263C93.5742 20.5972 93.8371 20.177 94.0303 19.6772ZM115.396 13.5303C115.637 14.2863 115.759 15.1035 115.759 15.96V25.8H110.997V16.56C110.997 15.7917 110.804 15.1368 110.424 14.6136C110.084 14.1471 109.473 13.92 108.554 13.92C107.731 13.92 107.135 14.1714 106.735 14.6883C106.295 15.2565 106.081 15.9372 106.081 16.77V25.8H101.319V9.99003H105.989V10.8621C106.314 10.5873 106.673 10.3596 107.058 10.1817C107.941 9.77583 108.855 9.57003 109.776 9.57003C110.775 9.57003 111.661 9.73953 112.41 10.0737C113.164 10.4109 113.798 10.8861 114.295 11.4867C114.779 12.0732 115.149 12.7605 115.396 13.53V13.5303ZM79.5347 21.6497C79.8419 21.6118 79.93 21.5932 79.9499 21.5882L80.7096 21.4001V25.4558L80.3264 25.6067C80.24 25.6409 80.0772 25.6966 79.5835 25.8251C79.182 25.9294 78.6417 25.9802 77.9312 25.9802C76.3884 25.9802 75.1458 25.5392 74.2382 24.6695C73.3255 23.7962 72.8629 22.5718 72.8629 21.0301V14.2801H71.031V9.99015H72.8623L72.8629 5.51985H77.5954V9.99015H80.679V14.2801H77.5954V20.4599C77.5954 20.9216 77.6894 21.2549 77.8667 21.4235C78.0502 21.5978 78.3999 21.6902 78.8777 21.6902C79.0954 21.6902 79.3161 21.6763 79.5347 21.6497ZM2.83655 9.83775C2.70588 9.87195 2.59902 9.73575 2.66374 9.61905C4.11124 7.01025 6.60022 4.96545 9.75226 4.13565C12.904 3.30615 16.1003 3.85425 18.6815 5.40255C18.7969 5.47185 18.7737 5.64225 18.643 5.67675L2.83655 9.83775ZM22.2158 8.72271C22.903 9.72621 23.4372 10.8554 23.7738 12.089C24.1102 13.3226 24.222 14.5628 24.1376 15.7694C24.1331 15.8336 24.087 15.8878 24.0237 15.9043L3.38205 21.3382C3.31885 21.3547 3.25138 21.3305 3.21474 21.2774C2.52778 20.2736 1.99349 19.1446 1.65673 17.911C1.32057 16.6775 1.20853 15.4373 1.29279 14.2304C1.29737 14.1665 1.34347 14.1122 1.40668 14.0954L22.0484 8.66151C22.1115 8.64501 22.1793 8.66931 22.2158 8.72271ZM22.5941 20.1623C22.7245 20.128 22.8313 20.2642 22.7666 20.381C21.3194 22.9897 18.8301 25.0346 15.6784 25.8644C12.5263 26.6939 9.33029 26.1458 6.74922 24.5975C6.63382 24.5282 6.65702 24.3577 6.78733 24.3232L22.5941 20.1623Z" fill="white"/>
</svg>
