<svg width="120" height="30" viewBox="0 0 120 30" fill="none" xmlns="http://www.w3.org/2000/svg">
<g clip-path="url(#clip0_1214_762)">
<path d="M7.99993 0.762817L0 23.115H4.69993L6.96 16.5926H13.4599L15.78 23.115H20.58L12.5801 0.762817H7.99993ZM12.3401 12.8925H8.14007L9.88007 7.97195C10.0001 7.62866 10.1201 7.30445 10.2199 6.96116C10.3399 7.30445 10.44 7.64773 10.5799 7.99104L12.3401 12.8925Z" fill="white"/>
<path d="M28.4999 12.9497C26.3399 12.1297 26.0999 11.7482 26.0999 11.157C26.0999 10.4132 26.7599 9.9364 27.82 9.9364C29.0999 9.9364 30.0798 10.4132 30.5598 10.6992L31.48 11.2524L32.6999 7.70498L32.1599 7.36169C31.0998 6.69419 29.5 6.31274 27.88 6.31274C24.2598 6.31274 21.64 8.48693 21.64 11.5003C21.64 14.2657 24.1998 15.7342 26.3598 16.4779C28.4999 17.241 28.6799 17.7748 28.6799 18.4232C28.6799 19.6438 27.3198 19.8347 26.5398 19.8347C25.3 19.8347 23.9598 19.3196 23.2 18.9002L22.2798 18.3851L21.0798 22.0089L21.6599 22.3331C22.9799 23.0771 24.7199 23.4964 26.4798 23.4964C30.46 23.4964 33.1398 21.3604 33.1398 18.1944C33.1398 14.9713 30.4799 13.6554 28.4999 12.9497Z" fill="white"/>
<path d="M40.2 2.76538L35.7199 4.06226V6.61787H33.3199V10.2987H35.7401V17.6034C35.7401 19.6438 36.18 21.0934 37.0601 22.0661C37.92 22.9815 39.24 23.4774 40.74 23.4774C42.1001 23.4774 43.08 23.2104 43.5401 23.0578L44.1401 22.848L43.9001 19.1481L42.8801 19.4533C42.5599 19.5296 42.2201 19.6056 41.4799 19.6056C40.9399 19.6056 40.2 19.6056 40.2 17.5271V10.2987H44.2601V6.61787H40.2199L40.2 2.76538Z" fill="white"/>
<path d="M55.1601 6.46532L54.3402 6.36998C54.1002 6.33182 53.8602 6.31274 53.5401 6.31274C52.1202 6.31274 50.8201 6.86582 49.8201 7.83848L49.7802 6.61789H45.5802L45.6402 7.47612C45.7201 8.73486 45.7801 10.2034 45.7801 12.0724V23.1341H50.3202V14.3801C50.3202 13.9605 50.3601 13.56 50.4001 13.2549C50.7402 11.5384 51.8601 10.4704 53.3601 10.4704C53.7201 10.4704 53.9401 10.4704 54.1401 10.5086L55.1601 10.7184V6.46532Z" fill="white"/>
<path d="M63.44 6.31274C58.3801 6.31274 54.8401 9.87919 54.8401 15.0094C54.8401 19.9873 58.2601 23.4774 63.1602 23.4774C67.3201 23.4774 71.78 20.7502 71.78 14.7615C71.8201 9.78381 68.3802 6.31274 63.44 6.31274ZM67.22 14.8378C67.22 17.7178 65.5801 19.8157 63.3402 19.8157C61.1 19.8157 59.48 17.7367 59.48 14.9141C59.48 13.0832 60.32 9.97452 63.4201 9.97452C66.4201 9.95545 67.22 13.1404 67.22 14.8378Z" fill="white"/>
<path d="M86.7001 2.53647C85.2001 1.25868 82.9602 0.610229 80.0401 0.610229C78.0801 0.610229 76.2201 0.743729 74.5201 1.0298L73.8201 1.14423V23.134H78.3201V14.9522C78.7801 14.9903 79.2601 15.0094 79.7202 15.0094C82.7601 15.0094 85.3401 14.113 86.9802 12.492C88.2601 11.2523 88.9002 9.57397 88.9002 7.49514C88.8801 5.4926 88.1202 3.73801 86.7001 2.53647ZM84.3801 7.62864C84.3801 10.7565 81.5001 11.2142 79.7802 11.2142C79.2001 11.2142 78.7201 11.1951 78.3001 11.1379V4.4246C78.7401 4.36739 79.3401 4.34829 80.1001 4.34829C82.0602 4.36739 84.3801 4.93953 84.3801 7.62864Z" fill="white"/>
<path d="M102.7 18.7474V13.1786C102.7 8.73486 100.28 6.31274 95.9201 6.31274C93.9 6.31274 91.7801 6.84674 90.3 7.72407L89.7401 8.06736L90.96 11.5003L91.9001 10.89C92.8399 10.2797 94.2 9.91731 95.5399 9.91731C96.4399 9.89824 97.1201 10.108 97.56 10.5276C97.92 10.8709 98.1401 11.3859 98.22 12.0343C94.68 12.1297 92.0801 12.9497 90.5201 14.4373C89.4199 15.4672 88.86 16.8022 88.86 18.3851C88.86 20.9027 90.78 23.4774 94.4801 23.4774C96.06 23.4774 97.5401 23.0004 98.7 22.1424L98.82 23.115H103.12L102.98 22.1805C102.76 21.2842 102.7 20.1208 102.7 18.7474ZM95.1401 19.8538C94.4599 19.8538 93.3401 19.6249 93.3401 18.0802C93.3401 17.4887 93.5201 17.0312 93.9199 16.6496C94.4599 16.1537 95.6201 15.5816 98.2601 15.5244V17.298C98.2601 17.4317 98.2399 17.6604 98.1799 17.9083C97.8401 18.8049 96.8599 19.8538 95.1401 19.8538Z" fill="white"/>
<path d="M115.18 6.61795L111.9 15.9059C111.82 16.1349 111.74 16.3829 111.66 16.6115C111.58 16.3829 111.5 16.1538 111.4 15.9442L107.82 6.61795H102.86L109.06 21.4368L109.08 21.4749C109.18 21.6654 109.22 21.7801 109.22 21.8182C109.18 21.8945 109.12 22.0471 109.08 22.1424C108.54 23.2486 107.74 24.2594 106.94 24.8696L106.92 24.8887C106.02 25.6134 105.08 25.9569 104.72 26.0521L103.92 26.3L105.08 30.0001L105.82 29.8666C106.28 29.7903 107.88 29.4279 109.72 27.9592C111.92 26.1095 113.38 23.1341 115.3 18.3089L120 6.59888L115.18 6.61795Z" fill="white"/>
<path d="M16.5788 6.92308C19.4991 4.08137 24.4587 2.38397 29.839 2.38397C31.939 2.38397 33.979 2.63192 35.899 3.14685L36.0591 3.18499L39.5187 2.19326L37.9587 1.64016C35.0187 0.572164 31.6191 0 28.1391 0C23.0787 0 18.3788 1.16338 14.8388 3.28037L14.4591 3.50921L15.9188 7.57151L16.5788 6.92308Z" fill="white"/>
</g>
<defs>
<clipPath id="clip0_1214_762">
<rect width="120" height="30" fill="white"/>
</clipPath>
</defs>
</svg>
