<svg width="131" height="30" viewBox="0 0 131 30" fill="none" xmlns="http://www.w3.org/2000/svg">
<g clip-path="url(#clip0_1214_858)">
<path d="M10.2401 21.5647H12.2518L15.2947 8.27074H13.097L11.1826 18.1906H11.0516L8.4482 8.25387H6.75772L4.31497 18.1737H4.22199L2.10888 8.25387H-0.00422668L3.03865 21.5478H5.06723L7.54802 12.1931H7.67903L10.2401 21.5647ZM21.1269 20.485C19.1912 20.485 18.2699 19.4896 18.2699 17.2416H24.3937V16.55C24.3937 13.4922 22.9484 11.9738 20.5901 11.9738C17.7712 11.9738 16.3259 14.0362 16.3259 16.8874C16.3259 19.8397 17.6233 21.8009 20.7803 21.8009C21.944 21.8161 23.0911 21.5251 24.1063 20.9574V19.5318C23.2208 20.1188 22.1893 20.4488 21.1269 20.485ZM20.5436 13.2265C21.5579 13.2265 22.5173 14.0151 22.6103 15.9848H18.2995C18.5066 14.1037 19.3899 13.2222 20.5352 13.2222L20.5436 13.2265ZM28.5312 7.32178L26.5787 7.78993V20.8646C27.7179 21.4349 28.9687 21.7488 30.2428 21.784C32.9687 21.784 34.6592 20.097 34.6592 16.571C34.6592 13.5723 33.3913 11.9569 31.0711 11.9569C30.1832 11.9855 29.3145 12.2225 28.5354 12.6486L28.5312 7.32178ZM28.5312 14.07C29.1436 13.6777 29.8533 13.4631 30.5809 13.45C31.8488 13.45 32.694 14.2176 32.694 16.6006C32.694 19.6373 31.6417 20.5019 30.2512 20.5019C29.6607 20.52 29.0726 20.4182 28.5227 20.2024L28.5312 14.07ZM39.4644 8.25387H37.1865V21.5478H38.877V12.151H39.046L42.8792 21.5647H44.0837L47.9168 11.9274H48.0859V21.5647H50.1145V8.25387H47.7858L43.7667 18.7347H43.6737L39.4644 8.25387ZM56.9314 21.7714C59.5051 21.7714 61.2167 20.0843 61.2167 16.8578C61.2167 13.5765 59.4121 11.9443 56.9314 11.9443C54.4506 11.9443 52.646 13.5765 52.646 16.8578C52.6502 20.0632 54.3618 21.7882 56.9356 21.7882L56.9314 21.7714ZM56.9314 20.4597C55.5959 20.4597 54.6196 19.4264 54.6196 16.8578C54.6196 14.2893 55.6888 13.256 56.9314 13.256C58.1739 13.256 59.2431 14.323 59.2431 16.8578C59.2431 19.3926 58.2668 20.485 56.9356 20.485L56.9314 20.4597ZM63.4778 21.5478H65.4303V14.1586C66.1307 13.7587 66.9151 13.5276 67.7209 13.4837C68.6802 13.4837 69.4114 13.7452 69.4114 15.2256V21.5816H71.3639V14.7785C71.3639 12.8469 70.5186 11.9654 68.2618 11.9654C66.5698 11.9987 64.9165 12.4774 63.4693 13.353L63.4778 21.5478ZM78.3794 20.485C76.4438 20.485 75.5225 19.4896 75.5225 17.2416H81.6463V16.55C81.6463 13.4922 80.2009 11.9738 77.8427 11.9738C75.0238 11.9738 73.5784 14.0362 73.5784 16.8874C73.5784 19.8397 74.8759 21.8009 78.0328 21.8009C79.1965 21.8161 80.3436 21.5251 81.3589 20.9574V19.5318C80.4733 20.1188 79.4418 20.4488 78.3794 20.485ZM77.7962 13.2265C78.8105 13.2265 79.7698 14.0151 79.8628 15.9848H75.5605C75.7676 14.1037 76.6509 13.2222 77.7962 13.2222V13.2265ZM87.2882 19.1902H87.1741L84.7694 12.2901H82.7028L86.312 21.6659C85.8598 23.0535 85.0737 24.0658 83.7763 24.0658V25.6052C85.9359 25.6052 87.0812 24.2556 88.0025 21.6659L91.3835 12.2901H89.3718L87.2882 19.1902Z" fill="white"/>
<path d="M115.19 6.95426e-06C117.57 -0.0021898 119.921 0.516084 122.078 1.51836C122.408 1.66176 122.738 1.83468 123.067 2.0076L121.63 3.23914L119.475 1.08816L115.76 4.23873L113.571 1.97385L106.746 7.83215L111.12 12.4715L109.429 13.9055L113.744 18.5196L112.054 19.9536L118.224 26.5162L121.876 23.3066L125.054 26.7482C124.396 27.2352 123.706 27.6763 122.987 28.0683C120.615 29.3507 117.959 30.0205 115.262 30.0169C106.606 30.0169 99.5696 23.2687 99.5696 15.0021C99.5696 6.73556 106.539 6.95426e-06 115.19 6.95426e-06ZM112.316 14.07L116.06 10.8604L119.416 14.4412L115.672 17.6508L112.316 14.07ZM114.983 20.2615L118.697 17.0224L122.078 20.6031L118.33 23.8128L114.983 20.2615ZM109.653 7.96712L113.394 4.75749L116.749 8.33827L113.005 11.5479L109.653 7.96712ZM116.508 6.24632L119.293 3.83805L121.829 6.5036L119.044 8.93717L116.508 6.24632ZM121.478 17.2796L124.247 14.8756L126.782 17.5664L123.997 19.9747L121.478 17.2796ZM123.934 22.6951L126.719 20.2868L129.233 22.9524L126.448 25.3859L123.934 22.6951ZM125.092 10.3163L126.947 8.70941L128.638 10.485L126.782 12.0877L125.092 10.3163ZM122.696 5.01478L124.551 3.38255L126.241 5.1877L124.386 6.79039L122.696 5.01478ZM127.458 15.6179L129.314 14.0152L131.004 15.7908L129.119 17.3935L127.458 15.6179ZM119.086 11.628L121.871 9.21975L124.407 11.8853L121.622 14.2936L119.086 11.628Z" fill="white"/>
</g>
<defs>
<clipPath id="clip0_1214_858">
<rect width="131" height="30" fill="white"/>
</clipPath>
</defs>
</svg>
