<svg width="34" height="30" viewBox="0 0 34 30" fill="none" xmlns="http://www.w3.org/2000/svg">
<g clip-path="url(#clip0_1214_831)">
<path fill-rule="evenodd" clip-rule="evenodd" d="M0.0259143 13.3556L6.22531 0.147342C6.2456 0.102857 6.27815 0.0652765 6.31903 0.0391356C6.35991 0.0129948 6.40737 -0.000590114 6.45569 1.96624e-05H27.5461C27.5941 -0.000108814 27.6413 0.0138114 27.6818 0.0401167C27.7223 0.066422 27.7544 0.104 27.7744 0.148358L33.9738 13.3566C33.9974 13.4057 34.0049 13.4612 33.9952 13.515C33.9854 13.5687 33.959 13.6179 33.9197 13.6553L17.1767 29.9279C17.1291 29.9741 17.0658 30 16.9999 30C16.934 30 16.8706 29.9741 16.8231 29.9279L0.080005 13.6543C0.0407428 13.6169 0.0143129 13.5677 0.00458057 13.514C-0.0051518 13.4602 0.00232387 13.4047 0.0259143 13.3556ZM17.0245 14.7587C18.4099 14.7587 19.0309 14.7211 19.1511 14.712L19.1471 14.711C23.3972 14.5199 26.5675 13.7681 26.5675 12.8699C26.5675 11.9718 23.3962 11.2199 19.1471 11.0279V13.9642C19.0279 13.9754 18.3658 14.0312 17.0436 14.0312C15.9417 14.0312 15.1444 13.9835 14.8659 13.9632V11.0259C10.6078 11.2189 7.42945 11.9697 7.42945 12.8699C7.42945 13.7701 10.6078 14.522 14.8659 14.712C15.1404 14.7252 15.9227 14.7587 17.0245 14.7587ZM19.1511 10.7231V10.7241L19.1501 10.7231C19.1504 10.7231 19.1508 10.7231 19.1511 10.7231ZM19.1511 8.09566V10.7231C23.9617 10.9488 27.5762 11.916 27.5762 13.0752C27.5762 14.2344 23.9582 15.2017 19.1501 15.4262V23.8521H14.8649V15.4293C10.0458 15.2037 6.42176 14.2365 6.42176 13.0762C6.42176 11.9159 10.0458 10.9476 14.8649 10.7231V8.09566H8.93597V4.08746H25.081V8.09566H19.1511Z" fill="white"/>
</g>
<defs>
<clipPath id="clip0_1214_831">
<rect width="34" height="30" fill="white"/>
</clipPath>
</defs>
</svg>
