<svg width="107" height="30" viewBox="0 0 107 30" fill="none" xmlns="http://www.w3.org/2000/svg">
<g clip-path="url(#clip0_1214_828)">
<path fill-rule="evenodd" clip-rule="evenodd" d="M23.0482 9.41374H15.9061C15.9061 8.17236 15.7753 7.31891 15.4876 6.90512C15.069 6.28443 13.8917 5.94823 11.9819 5.94823C10.1245 5.94823 8.8949 6.12926 8.29319 6.49133C7.69147 6.8534 7.37754 7.65512 7.37754 8.87064C7.37754 9.98271 7.63915 10.7068 8.18854 11.0431C8.58096 11.3017 9.07803 11.431 9.7059 11.4827L11.1448 11.5862C14.2318 11.7931 16.1678 11.9482 16.9264 12.0517C19.3594 12.3103 21.1384 13.0086 22.2372 14.1206C23.1005 15 23.6237 16.1379 23.7807 17.5344C23.8854 18.3879 23.9377 19.3448 23.9377 20.4051C23.9377 22.862 23.7284 24.6465 23.2837 25.7844C22.4988 27.8793 20.6937 29.1724 17.9206 29.7413C16.7433 29.9741 14.9643 30.1034 12.5836 30.1034C8.58096 30.1034 5.80786 29.8448 4.23817 29.3275C2.30223 28.7068 1.04649 27.4396 0.418613 25.5258C0.0785153 24.4655 -0.104614 22.7068 -0.104614 20.2241H7.03744V20.8448C7.03744 22.1637 7.4037 23.0172 8.11006 23.3793C8.60712 23.6379 9.20883 23.7672 9.88903 23.7931H12.5052C13.8394 23.7931 14.7027 23.7155 15.069 23.5603C15.723 23.2758 16.1678 22.8362 16.3509 22.2413C16.4555 21.8534 16.5079 21.3879 16.5079 20.7931C16.5079 19.4482 16.0369 18.6465 15.1475 18.362C14.8074 18.2586 13.2115 18.0775 10.3861 17.8706C8.11006 17.6896 6.51421 17.5344 5.62473 17.3793C3.29636 16.9137 1.72668 15.9568 0.968001 14.5086C0.287806 13.2672 -0.0522903 11.4051 -0.0522903 8.8965C-0.0522903 6.98271 0.130839 5.45685 0.497098 4.31891C0.863357 3.18098 1.46507 2.30167 2.27607 1.70685C3.47949 0.801675 5.02302 0.258568 6.88047 0.103396C8.60712 -0.0517765 10.3338 -0.129359 12.0604 -0.103497C15.0428 -0.103497 17.1881 0.0775347 18.47 0.439604C21.5832 1.31891 23.1267 3.82754 23.1267 7.91374C23.1005 8.24995 23.0744 8.74133 23.0482 9.41374ZM63.7553 14.9741H68.6475C70.191 14.9224 71.159 14.7931 71.499 14.612C71.97 14.3534 72.2839 13.8362 72.4409 13.0603C72.5455 12.5431 72.5978 11.7672 72.5978 10.7586C72.5978 9.51719 72.4932 8.58616 72.3101 7.96547C72.0223 7.11202 71.3421 6.59478 70.2695 6.41374C70.0602 6.38788 69.5369 6.36202 68.7521 6.36202H63.7814L63.7553 14.9741ZM55.8807 29.4568V-0.103497H70.5311C72.5455 -0.103497 74.0629 0.0516734 75.1355 0.38788C77.5423 1.16374 79.1643 2.71547 80.0015 5.06892C80.4201 6.3103 80.6294 8.17236 80.6294 10.681C80.6294 13.681 80.3939 15.8275 79.923 17.1465C78.9812 19.7327 77.0453 21.2327 74.1152 21.6206C73.7751 21.6724 72.3101 21.7241 69.7201 21.7758L68.412 21.8275H63.7291V29.4568H55.8807ZM95.8291 18.5948L92.1404 5.76719L88.5563 18.5948H95.8291ZM97.3988 24.362H86.8819L85.4692 29.4827H77.333L86.1233 -0.0776377H97.9744L106.869 29.4827H98.9162L97.3988 24.362ZM44.5267 3.82754C47.8492 3.82754 50.8054 5.3534 52.7675 7.75857L54.4942 4.03443C51.6687 1.37064 47.9277 -0.129359 44.0035 -0.103497C37.6724 -0.103497 32.2308 3.72409 30.0071 9.15512H26.6323L24.644 13.4482H28.9868C28.9607 13.8362 28.9345 14.25 28.9345 14.6379C28.9345 15.1293 28.9607 15.6206 29.013 16.0862H26.8154L24.8272 20.3793H30.1379C32.4401 25.6551 37.7771 29.3793 44.0296 29.3793C47.169 29.3793 50.0991 28.4482 52.5059 26.8189V21.5689C50.57 23.7931 47.7184 25.1896 44.5267 25.1896C40.8118 25.1896 37.5416 23.2758 35.658 20.3793H46.7504L48.7387 16.0862H34.0098C33.879 15.2068 33.8528 14.3017 33.9575 13.4224H49.9682L51.9565 9.12926H35.3179C37.1753 5.97409 40.6025 3.82754 44.5267 3.82754Z" fill="white"/>
</g>
<defs>
<clipPath id="clip0_1214_828">
<rect width="107" height="30" fill="white"/>
</clipPath>
</defs>
</svg>
