<svg width="100" height="30" viewBox="0 0 100 30" fill="none" xmlns="http://www.w3.org/2000/svg">
<g clip-path="url(#clip0_1214_806)">
<path fill-rule="evenodd" clip-rule="evenodd" d="M13.3333 28.3333C20.6972 28.3333 26.6667 22.3638 26.6667 15C26.6667 7.63613 20.6972 1.66663 13.3333 1.66663C5.9695 1.66663 0 7.63613 0 15C0 22.3638 5.9695 28.3333 13.3333 28.3333ZM13.4287 15.7846L12.4778 19.0456H20L19.2275 21.6666H7.178L8.4085 17.4553L6.66667 18.0348L7.24267 16.0591L8.98583 15.4791L11.0735 8.33329H15.601L14.0047 13.8088L16.2203 13.0715L16.2395 13.1191L15.6795 15.0356L13.4287 15.7846Z" fill="white"/>
<path d="M30 3.33337H32.3712V24.6689H30V3.33337Z" fill="white"/>
<path d="M34.9692 8.62929C34.1411 8.62929 33.5892 7.90155 33.5892 7.03312C33.5892 6.1659 34.1667 5.46545 35.0196 5.46545C35.8731 5.46545 36.4249 6.1659 36.4249 7.03312C36.4249 7.90155 35.8731 8.62929 34.9944 8.62929H34.9692ZM33.9156 24.6688V11.1201H36.1237V24.6688H33.9156Z" fill="white"/>
<path d="M85.8307 8.62929C85.0019 8.62929 84.4501 7.90155 84.4501 7.03312C84.4501 6.1659 85.0272 5.46545 85.8799 5.46545C86.7339 5.46545 87.2857 6.1659 87.2857 7.03312C87.2857 7.90155 86.7339 8.62929 85.8547 8.62929H85.8307ZM84.7759 24.6688V11.1201H86.9842V24.6688H84.7759Z" fill="white"/>
<path d="M37.7494 6.63879H40.0667V10.1246H45.5897V12.1382H40.0667V19.9804C40.0667 21.7847 40.5247 22.8059 41.8441 22.8059C43.7597 22.8059 44.9101 22.2537 45.2607 22.1331L45.8861 24.1284C45.4294 24.3087 44.2601 25.0001 41.2242 25.0001C40.1201 25.0001 39.2316 24.5781 38.6656 23.8869C38.0189 23.0769 37.7494 21.7847 37.7494 20.0711V6.63879Z" fill="white"/>
<path d="M47.9333 17.8482C47.9921 21.4246 50.2181 22.8957 52.8299 22.8957C54.6991 22.8957 55.8571 22.5657 56.8061 22.1742L57.2809 24.0389C56.3614 24.4584 54.7598 24.9699 52.4731 24.9699C48.0814 24.9699 45.4108 21.9951 45.4108 17.6367C45.4108 13.2202 47.9921 9.76343 52.1769 9.76343C56.8654 9.76343 58.0831 13.9416 58.0831 16.6152C58.0831 17.1567 58.0524 17.5766 57.9933 17.8782L47.9333 17.8482ZM55.5604 15.9541C55.5901 14.3012 54.8778 11.6574 51.9693 11.6574C49.2986 11.6574 48.1708 14.1207 47.9629 15.9541H55.5604Z" fill="white"/>
<path d="M69.8653 24.1585C69.2049 24.4869 67.7419 25 65.8763 25C61.6888 25 58.9628 22.0252 58.9628 17.5469C58.9628 13.0694 61.8886 9.79456 66.4221 9.79456C67.9143 9.79456 69.2334 10.1842 69.9221 10.5754L69.3476 12.589C68.7464 12.2579 67.7993 11.8977 66.4221 11.8977C63.2373 11.8977 61.5166 14.3924 61.5166 17.4274C61.5166 20.7934 63.5816 22.8655 66.3358 22.8655C67.7706 22.8655 68.7178 22.5055 69.4344 22.1742L69.8653 24.1585Z" fill="white"/>
<path d="M76.5916 25C73.0899 25 70.3416 22.1147 70.3416 17.5179C70.3416 12.6487 73.224 9.79456 76.8074 9.79456C80.5527 9.79456 83.0852 12.8295 83.0852 17.2465C83.0852 22.6562 79.7171 25 76.6197 25H76.5916ZM76.673 23.0164C78.935 23.0164 80.6335 20.6425 80.6335 17.3377C80.6335 14.8727 79.5295 11.778 76.7264 11.778C73.9515 11.778 72.7394 14.6624 72.7394 17.4274C72.7394 20.6114 74.3557 23.0164 76.6461 23.0164H76.673Z" fill="white"/>
<path d="M91.2713 12.2279V24.6689H88.9008V10.8664C89.9358 9.69531 93.9741 10.1096 93.9741 10.1096C95.7789 10.1096 100 11.2861 100 16.1687V24.6689H97.9123V16.4624C97.9123 13.8411 96.3013 12.1426 94.0649 12.1426C94.0649 12.1426 92.6459 12.0207 91.2713 12.2279Z" fill="white"/>
</g>
<defs>
<clipPath id="clip0_1214_806">
<rect width="100" height="30" fill="white"/>
</clipPath>
</defs>
</svg>
