<svg width="108" height="30" viewBox="0 0 108 30" fill="none" xmlns="http://www.w3.org/2000/svg">
<g clip-path="url(#clip0_1214_825)">
<path d="M5.97333 8.85001C8.39758 8.95386 10.2749 9.98539 11.4698 12.143C12.0926 13.2692 13.423 13.7561 14.6018 13.2438C15.7646 12.7407 16.339 11.4369 15.9392 10.2254C15.8358 9.91616 15.6749 9.63693 15.5164 9.35539C14.8155 8.10924 14.5352 6.76385 14.7604 5.36309C15.089 3.31385 16.1759 1.74462 18.0004 0.743086C18.9954 0.198471 20.0823 -0.0646064 21.2243 0.0138552C25.2525 0.281547 27.8927 3.78463 27.0678 7.61539C26.779 9.07056 25.9575 10.3641 24.7653 11.2408C23.5612 12.1269 22.2262 12.5977 20.7142 12.51C19.756 12.4569 18.7955 13.1192 18.4255 14.063C18.0578 14.9977 18.3428 16.1192 19.0804 16.7792C19.7077 17.3353 20.443 17.4669 21.2496 17.4807C22.6249 17.4943 23.9572 17.963 25.0402 18.8141C26.1231 19.6652 26.8964 20.8511 27.2401 22.1884C28.1777 25.7907 25.7029 29.4577 22.0079 29.9446C18.6461 30.3877 15.544 28.1261 14.9902 24.803C14.7158 23.3035 15.0189 21.7553 15.8381 20.4715C16.1325 20.0102 16.2621 19.4621 16.2058 18.917C16.1495 18.372 15.9105 17.8624 15.5279 17.4715C15.1333 17.079 14.6225 16.8258 14.0722 16.7497C13.5221 16.6735 12.9621 16.7785 12.4763 17.0492C11.911 17.3677 11.6422 17.8961 11.3113 18.3992C10.5415 19.5715 9.53963 20.4761 8.20916 20.9769C7.33804 21.3106 6.40372 21.4447 5.47423 21.3697C4.54497 21.2947 3.64398 21.0127 2.83696 20.5437C2.02995 20.0748 1.33714 19.431 0.809319 18.6593C0.281268 17.8873 -0.0684676 17.007 -0.214842 16.0823C-0.759438 12.69 1.65103 9.40616 5.0289 8.92847C5.34141 8.88463 5.65392 8.8777 5.97103 8.85001H5.97333Z" fill="white"/>
<path d="M74.5004 22.6016V22.867C74.5004 25.1516 74.5004 27.4362 74.505 29.7208C74.505 29.9285 74.4614 30 74.2293 29.9977C72.993 29.986 71.7568 29.986 70.5205 29.9977C70.2999 30 70.2563 29.9331 70.2563 29.7347C70.2631 23.137 70.2631 16.5393 70.2563 9.94394C70.2563 9.7524 70.2838 9.67394 70.5136 9.67625C71.7016 9.6901 72.8919 9.68779 74.0799 9.67856C74.2706 9.67856 74.3465 9.71317 74.3327 9.91625C74.3166 10.2347 74.3304 10.5532 74.3304 10.8716C74.3603 10.8763 74.3855 10.8878 74.3947 10.8809C75.4196 9.92317 76.6811 9.48702 78.069 9.38317C80.3508 9.21471 82.3546 9.83317 83.9516 11.4716C84.9787 12.5262 85.5348 13.8093 85.76 15.2262C86.0587 17.0885 85.8634 18.8954 84.8937 20.557C83.4506 23.0262 81.2217 24.1477 78.3034 24.0116C76.9814 23.9638 75.7086 23.496 74.6682 22.6754C74.639 22.6519 74.6084 22.6302 74.5763 22.6108C74.5625 22.6039 74.5441 22.6062 74.5004 22.6016ZM77.9932 20.2639C80.0774 20.2708 81.6169 18.7708 81.633 16.7216C81.6468 14.6585 80.1164 13.1239 78.03 13.1124C75.9527 13.1008 74.3878 14.6354 74.3878 16.6893C74.3878 18.7362 75.9228 20.257 77.9955 20.2639H77.9932ZM56.9792 10.9293C60.9085 7.71702 66.8945 9.55625 68.2066 14.3539C68.8683 16.777 68.6248 19.1216 67.1105 21.2193C65.6329 23.2708 63.5304 24.1431 60.9637 24.0116C59.6231 23.962 58.3331 23.4852 57.2802 22.65C57.2526 22.627 57.2227 22.6108 57.1515 22.5647V22.8808C57.1515 25.1562 57.1469 27.4339 57.1561 29.7093C57.1561 29.9308 57.1101 30.0024 56.8643 30C55.6572 29.9857 54.4499 29.9857 53.2428 30C52.9671 30.0024 52.8981 29.9354 52.8981 29.6677C52.9073 23.2639 52.905 16.86 52.905 10.4539C52.905 10.207 52.82 9.87702 52.9487 9.73625C53.1003 9.57471 53.4496 9.68779 53.7139 9.68548C54.7203 9.68086 55.7291 9.6901 56.7379 9.67856C56.9447 9.67625 56.9929 9.73394 56.9837 9.92317C56.9677 10.2416 56.9792 10.5601 56.9792 10.9293ZM60.6626 20.2639C62.7491 20.2639 64.2887 18.7339 64.2818 16.6731C64.2749 14.6331 62.7238 13.1101 60.6534 13.1124C58.5716 13.1147 57.0297 14.6493 57.0366 16.7101C57.0458 18.757 58.5854 20.2639 60.6626 20.2639ZM103.107 18.2377C101.471 18.2377 99.8368 18.2424 98.2007 18.2331C97.9479 18.2331 97.9203 18.2908 97.9916 18.5124C98.3753 19.7077 99.5082 20.5131 100.848 20.5962C102.406 20.6885 103.582 20.0424 104.52 18.9139C104.704 18.6924 104.816 18.6901 105.041 18.8585C105.903 19.5093 106.779 20.1393 107.654 20.7693C107.803 20.8754 107.849 20.9331 107.716 21.1016C106.475 22.6339 104.89 23.6008 102.891 23.917C99.8551 24.397 96.5278 23.3539 94.7906 20.7277C93.7773 19.1954 93.4464 17.5177 93.6647 15.7293C93.922 13.6224 94.9101 11.8847 96.7507 10.7216C99.2094 9.16856 101.859 8.84087 104.582 10.0293C106.388 10.8162 107.383 12.3024 107.932 14.0908C108.332 15.3947 108.327 16.7354 108.321 18.0739C108.321 18.3 108.16 18.2354 108.04 18.2354L103.107 18.2377ZM100.99 14.9724C101.921 14.9724 102.852 14.9654 103.782 14.9793C104.019 14.9839 104.042 14.9124 103.998 14.7185C103.916 14.2655 103.709 13.8451 103.4 13.5047C103.091 13.1643 102.693 12.918 102.252 12.7939C101.943 12.7023 101.625 12.6467 101.303 12.6277C99.6529 12.4893 98.4213 13.2854 97.9893 14.7508C97.9318 14.9447 97.9732 14.9793 98.1685 14.977C99.1106 14.9677 100.048 14.9724 100.99 14.9724ZM91.9114 13.1562C91.9114 16.6524 91.9068 20.1485 91.9183 23.6424C91.9183 23.8962 91.8448 23.9539 91.592 23.9516C90.3748 23.941 89.1579 23.941 87.9407 23.9516C87.7431 23.9516 87.6649 23.9262 87.6649 23.7047C87.6741 16.6593 87.6741 9.61163 87.6672 2.56625C87.6672 2.36087 87.7201 2.30779 87.9338 2.30779C89.17 2.31933 90.4063 2.32163 91.6403 2.30779C91.8792 2.30548 91.916 2.38394 91.916 2.58702C91.9091 6.11086 91.9114 9.63471 91.9114 13.1562ZM38.6146 10.9016C38.7984 10.7332 38.934 10.5947 39.0833 10.4747C40.4965 9.35086 42.0843 9.10856 43.8169 9.59779C43.9203 9.62548 43.9732 9.66471 43.9732 9.7824C43.9663 11.0563 43.9686 12.3324 43.9686 13.6362C43.617 13.5554 43.2838 13.4747 42.9483 13.4054C42.3539 13.2665 41.7385 13.2432 41.1353 13.3362C40.508 13.4276 39.9276 13.7218 39.4815 14.1739C39.0355 14.626 38.7481 15.2117 38.6628 15.8424C38.6306 16.0616 38.6146 16.2808 38.6146 16.5C38.6146 18.8031 38.6123 21.1039 38.6214 23.407C38.6214 23.6493 38.5617 23.7116 38.3089 23.707C37.0835 23.6964 35.8578 23.6964 34.6323 23.707C34.4393 23.707 34.3727 23.6677 34.3727 23.467C34.3773 18.9439 34.3773 14.4208 34.3727 9.9001C34.3727 9.70856 34.4416 9.67856 34.614 9.68086C35.8686 9.68548 37.1255 9.68548 38.3802 9.68086C38.5571 9.68086 38.6306 9.71317 38.6191 9.9024C38.6031 10.2139 38.6146 10.5255 38.6146 10.9016ZM50.2096 16.7077C50.2096 18.9462 50.2073 21.1847 50.2142 23.4231C50.2142 23.6493 50.1568 23.7162 49.9155 23.7139C48.69 23.703 47.4644 23.7024 46.2389 23.7116C46.039 23.7116 45.9608 23.6816 45.9631 23.4624C45.9677 18.9485 45.9677 14.4347 45.9631 9.92087C45.9631 9.72702 46.0137 9.67856 46.2113 9.67856C47.4568 9.68779 48.7022 9.6901 49.9477 9.67856C50.1614 9.67856 50.2165 9.72933 50.2142 9.93702C50.2073 12.1939 50.2096 14.4508 50.2096 16.7077ZM48.0795 3.59779C49.1503 3.6624 49.9178 4.1701 50.1866 4.94317C50.598 6.13625 49.7776 7.37779 48.4747 7.53702C47.7785 7.6224 47.1305 7.52087 46.5905 7.04779C45.9425 6.4824 45.7219 5.77163 45.9953 4.9801C46.2711 4.18625 46.88 3.7224 47.7578 3.62086C47.8911 3.60702 48.022 3.6024 48.0795 3.59779Z" fill="white"/>
</g>
<defs>
<clipPath id="clip0_1214_825">
<rect width="108" height="30" fill="white"/>
</clipPath>
</defs>
</svg>
